<svg width="20" height="19" viewBox="0 0 20 19" fill="none" xmlns="http://www.w3.org/2000/svg">
<path d="M3.08015 2.37011L3.83739 1.61287C4.64626 0.804 5.97142 0.78679 6.7975 1.61287L7.74405 2.55941C8.55291 3.36828 8.57012 4.69345 7.74405 5.51953L6.98681 6.27676" stroke="white" stroke-miterlimit="10"/>
<path d="M3.08013 2.3701C3.08013 2.3701 0.515844 4.55577 7.69239 11.7323" stroke="white" stroke-miterlimit="10"/>
<path d="M6.98682 6.27686C6.98682 6.27686 6.7803 6.72431 9.74041 9.68442" stroke="white" stroke-miterlimit="10"/>
<path d="M13.1307 12.4204L13.888 11.6632C14.6969 10.8543 16.022 10.8371 16.8481 11.6632L17.7946 12.6097C18.6035 13.4186 18.6207 14.7437 17.7946 15.5698L17.0374 16.3271" stroke="white" stroke-miterlimit="10"/>
<path d="M17.0374 16.3276C17.0374 16.3276 14.8517 18.8919 7.6752 11.7153" stroke="white" stroke-miterlimit="10"/>
<path d="M13.1308 12.4209C13.1308 12.4209 12.6833 12.6274 9.72318 9.66732" stroke="white" stroke-miterlimit="10"/>
</svg>
