<svg width="13" height="25" fill="none" xmlns="http://www.w3.org/2000/svg"><path clip-rule="evenodd" d="M3.654 18.025v-5.267c0-.293-.057-.41-.346-.351H1.694c-.231 0-.289-.059-.289-.293V8.837c0-.235.058-.293.289-.293h1.672c.346 0 .404-.117.404-.41V5.618c0-.995.288-1.99.865-2.81.75-1.053 1.845-1.521 3.056-1.58 1.27-.058 2.538 0 3.807-.058.173 0 .23.058.23.234V4.74c0 .175-.057.234-.23.234H9.652c-.807 0-1.326.41-1.384 1.229-.058.644 0 1.346 0 1.99 0 .234.115.234.288.234h2.769c.288 0 .346.058.346.351-.116 1.112-.231 2.224-.289 3.277 0 .235-.115.293-.346.293H8.845c-.52 0-.462-.059-.462.468v10.3c0 .352-.115.469-.46.469H4.115c-.346 0-.404-.117-.404-.41-.058-1.697-.058-3.453-.058-5.15z" stroke="#314961" stroke-miterlimit="10" stroke-linecap="round" stroke-linejoin="round"/></svg>