<svg width="13" height="25" fill="none" xmlns="http://www.w3.org/2000/svg"><path clip-rule="evenodd" d="M3.48 18.345v-5.267c0-.293-.058-.41-.347-.351H1.52c-.231 0-.289-.059-.289-.293V9.157c0-.234.058-.293.289-.293h1.67c.346 0 .404-.117.404-.41V5.939c0-.995.288-1.99.865-2.81.75-1.053 1.845-1.52 3.056-1.58 1.27-.058 2.538 0 3.807-.058.173 0 .23.059.23.234V5.06c0 .176-.057.234-.23.234H9.477c-.807 0-1.326.41-1.384 1.23-.058.643 0 1.345 0 1.99 0 .233.115.233.288.233h2.769c.288 0 .346.059.346.351-.116 1.112-.231 2.224-.289 3.278 0 .234-.115.292-.346.292H8.67c-.52 0-.462-.058-.462.469v10.3c0 .35-.115.468-.461.468H3.941c-.346 0-.404-.117-.404-.41-.058-1.697-.058-3.453-.058-5.15z" stroke="#4C75A5" stroke-miterlimit="10" stroke-linecap="round" stroke-linejoin="round"/></svg>