<svg width="23" height="24" fill="none" xmlns="http://www.w3.org/2000/svg"><path d="M15.21 22.553H7.367c-3.576 0-6.46-2.926-6.46-6.555V8.04c0-3.628 2.884-6.555 6.46-6.555h7.843c3.576 0 6.46 2.927 6.46 6.555V16c0 3.628-2.884 6.554-6.46 6.554z" stroke="#4C75A5" stroke-miterlimit="10" stroke-linecap="round" stroke-linejoin="round"/><path d="M11.289 16.7c2.548 0 4.613-2.095 4.613-4.681s-2.065-4.682-4.613-4.682c-2.548 0-4.614 2.096-4.614 4.682 0 2.585 2.066 4.682 4.614 4.682zm5.767-10.066c.414 0 .75-.34.75-.76s-.336-.761-.75-.761-.75.34-.75.76.336.761.75.761z" stroke="#4C75A5" stroke-miterlimit="10" stroke-linecap="round" stroke-linejoin="round"/></svg>