<svg width="23" height="23" fill="none" xmlns="http://www.w3.org/2000/svg"><path d="M15.385 22.233H7.542c-3.576 0-6.46-2.926-6.46-6.555v-7.96c0-3.628 2.884-6.554 6.46-6.554h7.843c3.576 0 6.46 2.926 6.46 6.555v7.96c0 3.628-2.884 6.554-6.46 6.554z" stroke="#314961" stroke-miterlimit="10" stroke-linecap="round" stroke-linejoin="round"/><path d="M11.464 16.38c2.548 0 4.613-2.096 4.613-4.681 0-2.586-2.065-4.682-4.613-4.682-2.548 0-4.614 2.096-4.614 4.681 0 2.586 2.066 4.683 4.614 4.683zM17.23 6.314c.415 0 .75-.34.75-.76s-.335-.762-.75-.762c-.413 0-.749.341-.749.761s.336.761.75.761z" stroke="#314961" stroke-miterlimit="10" stroke-linecap="round" stroke-linejoin="round"/></svg>