<svg width="25" height="25" fill="none" xmlns="http://www.w3.org/2000/svg"><path d="M12.507 1a11.51 11.51 0 00-4.194 22.228c-.1-.91-.191-2.31.04-3.305.21-.898 1.35-5.72 1.35-5.72a4.158 4.158 0 01-.344-1.708c0-1.601.927-2.793 2.082-2.793.98 0 1.456.738 1.456 1.621 0 .988-.628 2.464-.953 3.832-.27 1.145.574 2.08 1.704 2.08 2.045 0 3.618-2.157 3.618-5.27 0-2.756-1.98-4.68-4.807-4.68-3.275 0-5.197 2.457-5.197 4.995 0 .99.378 2.05.857 2.626a.343.343 0 01.08.33c-.088.364-.282 1.146-.32 1.306-.05.21-.167.255-.385.15-1.434-.669-2.336-2.77-2.336-4.458 0-3.63 2.642-6.964 7.604-6.964 3.992 0 7.094 2.845 7.094 6.646 0 3.967-2.5 7.159-5.972 7.159-1.166 0-2.264-.604-2.637-1.322 0 0-.578 2.198-.717 2.736-.26 1-.962 2.252-1.434 3.018A11.51 11.51 0 1012.507 1" stroke="#314961" stroke-miterlimit="10"/></svg>