<svg width="25" height="15" fill="none" xmlns="http://www.w3.org/2000/svg"><path d="M12.574 14.43h1.384s.404-.06.635-.293c.173-.235.173-.644.173-.644s0-1.931.865-2.165c.865-.293 1.96 1.814 3.114 2.633.865.644 1.557.468 1.557.468l3.114-.058s1.615-.117.866-1.405c-.058-.117-.462-.995-2.307-2.75-1.961-1.873-1.673-1.522.634-4.741 1.442-1.931 2.018-3.16 1.845-3.628-.172-.469-1.21-.352-1.21-.352h-3.518s-.289-.058-.462.059c-.173.117-.288.41-.288.41s-.577 1.521-1.327 2.809c-1.557 2.692-2.191 2.867-2.422 2.692-.577-.41-.461-1.58-.461-2.4 0-2.633.403-3.687-.75-3.98C13.612.97 13.382.91 12.401.91c-1.268 0-2.306 0-2.94.293-.405.175-.693.644-.52.644.23 0 .75.175 1.038.526.346.468.346 1.639.346 1.639s.23 3.102-.461 3.453c-.462.292-1.154-.293-2.538-2.75-.692-1.23-1.269-2.634-1.269-2.634S6 1.905 5.77 1.788a1.444 1.444 0 00-.519-.234H1.905s-.519 0-.692.234c-.173.176 0 .585 0 .585s2.595 6.204 5.594 9.364c2.71 2.926 5.767 2.692 5.767 2.692z" stroke="#314961" stroke-miterlimit="10" stroke-linecap="round" stroke-linejoin="round"/></svg>