<svg width="25" height="16" fill="none" xmlns="http://www.w3.org/2000/svg"><path d="M12.4 14.75h1.383s.404-.059.635-.293c.173-.234.173-.644.173-.644s0-1.931.865-2.165c.865-.293 1.96 1.814 3.114 2.633.865.644 1.557.469 1.557.469l3.114-.059s1.615-.117.865-1.405c-.057-.117-.461-.995-2.306-2.75-1.961-1.873-1.673-1.522.634-4.74 1.442-1.932 2.018-3.161 1.845-3.63-.173-.467-1.21-.35-1.21-.35H19.55s-.288-.059-.461.058c-.173.117-.288.41-.288.41s-.577 1.522-1.327 2.81c-1.557 2.691-2.191 2.867-2.422 2.691-.577-.41-.461-1.58-.461-2.4 0-2.633.403-3.686-.75-3.979-.404-.117-.634-.176-1.615-.176-1.269 0-2.307 0-2.941.293-.404.176-.692.644-.52.644.232 0 .75.175 1.039.527.346.468.346 1.638.346 1.638s.23 3.102-.461 3.453c-.462.293-1.154-.292-2.538-2.75A27.527 27.527 0 015.882 2.4s-.057-.176-.288-.293c-.23-.175-.519-.234-.519-.234H1.73s-.519 0-.692.234c-.173.176 0 .586 0 .586s2.595 6.203 5.594 9.363c2.71 2.927 5.767 2.693 5.767 2.693z" stroke="#4C75A5" stroke-miterlimit="10" stroke-linecap="round" stroke-linejoin="round"/></svg>