<svg width="69" height="68" xmlns="http://www.w3.org/2000/svg"><path d="M40.79 25.118l-9-4.5a1.124 1.124 0 00-1.628 1.007v9a1.124 1.124 0 001.628 1.007l9-4.5a1.124 1.124 0 000-2.014zm-8.378 3.687v-5.36l5.36 2.68-5.36 2.68zM11.037 45.25h-2.25a1.125 1.125 0 100 2.25h2.25a1.125 1.125 0 100-2.25zm18 0h-13.5a1.125 1.125 0 100 2.25h13.5a1.125 1.125 0 100-2.25zm-18 4.5h-2.25a1.125 1.125 0 100 2.25h2.25a1.125 1.125 0 100-2.25zm18 0h-13.5a1.125 1.125 0 100 2.25h13.5a1.125 1.125 0 100-2.25zm-18 4.5h-2.25a1.125 1.125 0 100 2.25h2.25a1.125 1.125 0 100-2.25zm18 0h-13.5a1.125 1.125 0 100 2.25h13.5a1.125 1.125 0 100-2.25z"/><path d="M67.287.25H2.037A1.125 1.125 0 00.912 1.375v58.5A1.125 1.125 0 002.037 61h38.25a.265.265 0 00.09-.023l.472.71c.37.552.565 1.202.563 1.867v3.071a1.125 1.125 0 001.125 1.125h15.75a1.125 1.125 0 001.125-1.125v-2.014a3.316 3.316 0 01.563-1.867l.753-1.114a6.89 6.89 0 00.349-.63h6.21a1.125 1.125 0 001.125-1.125v-58.5A1.125 1.125 0 0067.287.25zm-7.875 58.331a3.4 3.4 0 01-.563 1.8l-.742 1.114a5.579 5.579 0 00-.945 3.116v.889h-13.5v-1.946a5.579 5.579 0 00-.945-3.117l-7.729-11.61a2.258 2.258 0 011.699-.573 2.206 2.206 0 011.654.934l3.285 4.59a1.1 1.1 0 001.26.416 1.125 1.125 0 00.776-1.069v-20.25a1.125 1.125 0 112.25 0v13.5a1.125 1.125 0 102.25 0v-2.25a1.125 1.125 0 112.25 0v2.25a1.125 1.125 0 102.25 0v-2.25a1.125 1.125 0 112.25 0v2.25a1.125 1.125 0 102.25 0v-2.25a1.125 1.125 0 112.25 0v14.456zm6.75-17.831h-2.25a1.125 1.125 0 100 2.25h2.25v15.75h-4.511c0-.045.011-.09.011-.135v-14.49a3.385 3.385 0 00-3.375-3.375 3.346 3.346 0 00-2.25.877 3.323 3.323 0 00-4.5 0 3.346 3.346 0 00-2.25-.877 3.373 3.373 0 00-1.125.203v-8.078a3.375 3.375 0 00-6.75 0v16.74l-1.237-1.744a4.512 4.512 0 00-6.886-.529l-.55.563a1.126 1.126 0 00-.124 1.406l6.277 9.439H3.162V43h34.875a1.125 1.125 0 100-2.25H3.162V11.5h63v29.25zm0-31.5h-63V2.5h63v6.75z"/><path d="M7.662 4.75H6.537a1.125 1.125 0 000 2.25h1.125a1.125 1.125 0 000-2.25zm5.625 0h-1.125a1.125 1.125 0 100 2.25h1.125a1.125 1.125 0 100-2.25zm5.625 0h-1.125a1.125 1.125 0 100 2.25h1.125a1.125 1.125 0 100-2.25zm45 32.625v-22.5a1.125 1.125 0 00-1.125-1.125H6.537a1.125 1.125 0 00-1.125 1.125v22.5A1.125 1.125 0 006.537 38.5h31.5a1.125 1.125 0 100-2.25H7.662V16h54v20.25H51.537a1.125 1.125 0 100 2.25h11.25a1.125 1.125 0 001.125-1.125z"/></svg>