<?xml version="1.0" encoding="utf-8"?><svg viewBox="0 0 20 19" xmlns="http://www.w3.org/2000/svg" xmlns:xlink="http://www.w3.org/1999/xlink"><style>:root>svg{display:none}:root>svg:target{display:block}</style><svg fill="none" viewBox="0 0 20 19" id="tel" xmlns="http://www.w3.org/2000/svg"><path d="M3.08 2.37l.757-.757a2.093 2.093 0 012.96 0l.947.946a2.093 2.093 0 010 2.96l-.757.758M3.08 2.37S.516 4.556 7.692 11.732M6.987 6.277s-.207.447 2.753 3.407M13.13 12.42l.758-.757a2.093 2.093 0 012.96 0l.947.947a2.093 2.093 0 010 2.96l-.758.757M17.037 16.328s-2.185 2.564-9.362-4.613M13.13 12.42s-.447.207-3.407-2.753" stroke="#fff" stroke-miterlimit="10"/></svg></svg>