<?xml version="1.0" encoding="utf-8"?><svg viewBox="0 0 125 126" xmlns="http://www.w3.org/2000/svg" xmlns:xlink="http://www.w3.org/1999/xlink"><style>:root>svg{display:none}:root>svg:target{display:block}</style><svg fill="none" viewBox="0 0 44 72" id="catalog" xmlns="http://www.w3.org/2000/svg"><path d="M42.826 12h-41v59h41V12zM26.826 5.9l8-1.9v8M1.826 12l24.6-6 .4-.1V1l-25 11z" stroke="#59738C" stroke-width="2" stroke-miterlimit="10" stroke-linecap="round" stroke-linejoin="round"/><path d="M21.826 18h-16v23h16V18zM38.826 46h-13v19h13V46zM26.826 21h12M26.826 25.5h6M26.826 30h9M5.826 47h9M5.826 51.5h12M5.826 56h6" stroke="#59738C" stroke-width="2" stroke-miterlimit="10" stroke-linecap="round" stroke-linejoin="round"/><path d="M12.226 18v12h9.6M5.826 36.1s4-1.1 9-.1v5" stroke="#59738C" stroke-width="2" stroke-miterlimit="10" stroke-linecap="round" stroke-linejoin="round"/></svg><svg viewBox="0 0 125 92" id="cattalog" xmlns="http://www.w3.org/2000/svg"><path clip-rule="evenodd" d="M53.88 1.988a1 1 0 011.054-.943l68.365 3.81a1 1 0 01.943 1.054l-4.71 84.524a1 1 0 01-1.054.942l-68.365-3.809a1 1 0 01-.943-1.054l4.71-84.524zm1.941 1.11l-4.598 82.527 66.368 3.698 4.598-82.527-66.368-3.698zM49.18 14.785a1 1 0 01-.642 1.26l-18.213 5.913 13.873 41.618a1 1 0 11-1.897.633L28.109 21.634a1 1 0 01.64-1.267l19.17-6.225a1 1 0 011.26.643zM24.765 28.182a1 1 0 01-.582 1.29l-8.135 3.078 28.825 52.52a1 1 0 11-1.753.962l-29.38-53.53a1 1 0 01.523-1.416l9.212-3.485a1 1 0 011.29.581zM11.198 41.9a1 1 0 01-.232 1.395l-7.754 5.538L35.99 81.61a1 1 0 01-1.414 1.414L.964 49.413a1 1 0 01.125-1.521l8.714-6.224a1 1 0 011.395.232z"/><path clip-rule="evenodd" d="M63.78 12.209a1 1 0 011.054-.943l48.725 2.715a1 1 0 01.943 1.054l-1.634 29.335a1 1 0 01-1.054.943l-48.726-2.715a1 1 0 01-.943-1.054l1.635-29.335zm1.94 1.11l-1.522 27.337 46.728 2.604 1.524-27.338-46.73-2.603zM73.372 53.379a1 1 0 011.054-.944l36.35 1.992a1 1 0 01-.11 1.997l-36.35-1.992a1 1 0 01-.944-1.053zM72.626 64.336a1 1 0 011.05-.946l14.192.747a1 1 0 11-.105 1.997l-14.191-.747a1 1 0 01-.947-1.051zM71.63 75.284a1 1 0 011.06-.937l24.399 1.494a1 1 0 01-.123 1.997l-24.399-1.494a1 1 0 01-.937-1.06zM65.408 50.202a2.237 2.237 0 100 4.473 2.237 2.237 0 000-4.473zm-4.237 2.237a4.237 4.237 0 118.474 0 4.237 4.237 0 01-8.474 0zM64.661 73.106a2.237 2.237 0 100 4.474 2.237 2.237 0 000-4.474zm-4.237 2.237a4.237 4.237 0 118.474 0 4.237 4.237 0 01-8.474 0z"/><path clip-rule="evenodd" d="M84.15 12.352a1 1 0 01.928 1.066l-1.176 17.179 12.185.855.938-16.417a1 1 0 111.997.114l-.996 17.428a1 1 0 01-1.069.941l-14.191-.996a1 1 0 01-.928-1.066l1.245-18.175a1 1 0 011.066-.93zM64.66 32.52l-.207-.977a1 1 0 00.415 1.956h.003l.014-.003.062-.013.252-.047a28.556 28.556 0 014.154-.414c2.372-.056 5.029.214 6.974 1.287l-.465 8.364a1 1 0 101.997.111l.498-8.963a1 1 0 00-.444-.887c-2.51-1.674-5.951-1.974-8.608-1.91a30.54 30.54 0 00-4.459.444 16.767 16.767 0 00-.362.068l-.021.005h-.006l-.002.001s-.002 0 .206.979z"/></svg><svg fill="none" viewBox="0 0 55 73" id="content" xmlns="http://www.w3.org/2000/svg"><path d="M53.701 1H1v70.701h52.701V1z" stroke="#59738C" stroke-width="2" stroke-linecap="round" stroke-linejoin="round"/><path d="M45.014 20.306H9.684v6.199h35.33v-6.2zM41.397 52.395H13.406a.667.667 0 01-.673-.657V31.706c0 .183.05 2.27 2.17 6.618 0 0 1.582 2.542-.496 2.542H42.07" stroke="#59738C" stroke-width="2" stroke-linecap="round" stroke-linejoin="round"/><path d="M14.407 40.866c2.092 0 .496-2.542.496-2.542-2.12-4.344-2.158-6.435-2.158-6.618" stroke="#59738C" stroke-width="2" stroke-linecap="round" stroke-linejoin="round"/><path d="M15.136 46.63c1.115 0 .063-1.889.063-1.889-2.018-2.605-2.451-3.884-2.451-3.884h29.337M42.07 46.63H12.745s.433 1.272 2.451 3.883c0 0 1.052 1.891-.063 1.891M43.48 40.867h-2.062M42.07 40.867c.373.627.92 2.004 1.793 3.883 0 0 1.053 1.889-.062 1.889M40.746 52.395h3.06c1.116 0 .063-1.89.063-1.89-.675-1.56-1.425-3.245-1.793-3.885M41.418 46.63H43.807M12.733 26.505v5.201M41.615 26.511v5.186s-.05 2.077 2.17 6.633c0 0 1.582 2.542-.496 2.542M38.016 26.505v18.218" stroke="#59738C" stroke-width="2" stroke-linecap="round" stroke-linejoin="round"/><path d="M39.054 45.757a1.034 1.034 0 00-2.069 0v1.177a1.034 1.034 0 002.069 0v-1.177z" fill="#fff" stroke="#59738C" stroke-width="2" stroke-linecap="round" stroke-linejoin="round"/><path d="M53.701 10.838l-4.923-4.92L43.858 1H53.7v9.838z" stroke="#59738C" stroke-width="2" stroke-linecap="round" stroke-linejoin="round"/></svg><svg viewBox="0 0 117 102" id="corona" xmlns="http://www.w3.org/2000/svg"><path clip-rule="evenodd" d="M52.754 18.641a1 1 0 01.888 1.1L49.77 55.91a1 1 0 01-1.815.465L30.427 31.248a1 1 0 011.64-1.144l15.998 22.933 3.589-33.508a1 1 0 011.1-.888zM11.023 40.29a1 1 0 011.335.469L34.979 87.83l28.969-5.074a1 1 0 01.345 1.97L34.578 89.93a1 1 0 01-1.074-.552L10.555 41.625a1 1 0 01.468-1.334z"/><path clip-rule="evenodd" d="M30.696 29.763a1 1 0 011.076.917l2.458 30.682a1 1 0 01-1.682.808L11.006 41.88a1 1 0 111.371-1.457l19.652 18.51-2.25-28.094a1 1 0 01.917-1.076zM34.233 87.961a1 1 0 011.158.813l1.363 7.782a1 1 0 11-1.97.345L33.42 89.12a1 1 0 01.812-1.158zM38.199 66.403a1 1 0 011.336.463l6.848 14.114a1 1 0 11-1.8.873l-6.847-14.114a1 1 0 01.463-1.336zM51.95 62.013a1 1 0 011.232.695l4.584 16.455a1 1 0 01-1.927.537l-4.584-16.455a1 1 0 01.695-1.232z"/><path clip-rule="evenodd" d="M29.142 22.823a3.55 3.55 0 101.225 6.992 3.55 3.55 0 00-1.225-6.992zm-4.853 4.453a5.55 5.55 0 1110.932-1.915 5.55 5.55 0 01-10.932 1.915zM8.685 33.699A3.549 3.549 0 109.91 40.69a3.549 3.549 0 00-1.225-6.992zm-4.853 4.453a5.55 5.55 0 1110.931-1.915 5.55 5.55 0 01-10.931 1.915zM51.486 11.618a3.55 3.55 0 101.225 6.992 3.55 3.55 0 00-1.224-6.992zm-4.853 4.453a5.55 5.55 0 1110.932-1.915 5.55 5.55 0 01-10.932 1.915zM34.784 96.9a1 1 0 01.812-1.158l29.715-5.205a1 1 0 01.345 1.97l-29.715 5.205a1 1 0 01-1.157-.812zM77.207 21.614a1 1 0 011.228.701l7.433 27.187 12.19-24.088a1 1 0 011.784.903L86.481 52.72a1 1 0 01-1.857-.188l-8.118-29.69a1 1 0 01.7-1.229z"/><path clip-rule="evenodd" d="M99.287 24.83a1 1 0 01.894 1.097l-5.35 52.71a1 1 0 01-.823.885l-29.715 5.205a1 1 0 01-.345-1.97l28.969-5.075 5.274-51.957a1 1 0 011.096-.894zM52.681 18.654a1 1 0 011.337.46l14.778 30.319 7.475-27.079a1 1 0 011.928.532l-8.18 29.63a1 1 0 01-1.862.171L52.221 19.991a1 1 0 01.46-1.337z"/><path clip-rule="evenodd" d="M93.663 77.551a1 1 0 011.157.812l1.364 7.783a1 1 0 11-1.97.345l-1.364-7.782a1 1 0 01.813-1.158zM82.605 58.623a1 1 0 01.89 1.1l-1.643 15.6a1 1 0 01-1.989-.21l1.643-15.6a1 1 0 011.099-.89zM68.18 59.17a1 1 0 011.072.922l1.283 17.033a1 1 0 11-1.995.15l-1.282-17.033a1 1 0 01.922-1.072zM76.31 14.561a3.55 3.55 0 101.224 6.992 3.55 3.55 0 00-1.225-6.992zm-4.854 4.454A5.55 5.55 0 1182.387 17.1a5.55 5.55 0 01-10.931 1.915zM99.245 17.836a3.549 3.549 0 101.225 6.991 3.549 3.549 0 00-1.225-6.991zm-4.854 4.453a5.55 5.55 0 1110.932-1.915 5.55 5.55 0 01-10.931 1.915zM51.486 11.618a3.55 3.55 0 101.225 6.992 3.55 3.55 0 00-1.224-6.992zm-4.853 4.453a5.55 5.55 0 1110.932-1.915 5.55 5.55 0 01-10.932 1.915z"/><path clip-rule="evenodd" d="M64.499 91.696a1 1 0 01.812-1.158l29.715-5.205a1 1 0 01.345 1.97l-29.715 5.205a1 1 0 01-1.157-.812z"/></svg><svg viewBox="0 0 13 25" id="fasebok" xmlns="http://www.w3.org/2000/svg"><path fill-rule="evenodd" clip-rule="evenodd" d="M3.48 18.345v-5.267c0-.293-.058-.41-.347-.351H1.52c-.231 0-.289-.059-.289-.293V9.157c0-.234.058-.293.289-.293H3.19c.346 0 .404-.117.404-.41V5.939c0-.995.288-1.99.865-2.81.75-1.053 1.845-1.52 3.056-1.58 1.27-.058 2.538 0 3.807-.058.173 0 .23.059.23.234V5.06c0 .176-.057.234-.23.234H9.477c-.807 0-1.326.41-1.384 1.23-.058.643 0 1.345 0 1.99 0 .233.115.233.288.233h2.769c.288 0 .346.059.346.351-.116 1.112-.231 2.224-.289 3.278 0 .234-.115.292-.346.292H8.67c-.52 0-.462-.058-.462.469v10.3c0 .35-.115.468-.461.468H3.941c-.346 0-.404-.117-.404-.41-.058-1.697-.058-3.453-.058-5.15z" stroke="#4C75A5" stroke-miterlimit="10" stroke-linecap="round" stroke-linejoin="round"/></svg><svg viewBox="0 0 23 24" id="instagram" xmlns="http://www.w3.org/2000/svg"><path d="M15.21 22.553H7.367c-3.576 0-6.46-2.926-6.46-6.555V8.04c0-3.628 2.884-6.555 6.46-6.555h7.843c3.576 0 6.46 2.927 6.46 6.555V16c0 3.628-2.884 6.554-6.46 6.554z" stroke="#4C75A5" stroke-miterlimit="10" stroke-linecap="round" stroke-linejoin="round"/><path d="M11.289 16.7c2.548 0 4.613-2.095 4.613-4.681s-2.065-4.682-4.613-4.682c-2.548 0-4.614 2.096-4.614 4.682 0 2.585 2.066 4.682 4.614 4.682zM17.056 6.634c.414 0 .75-.34.75-.76s-.336-.761-.75-.761-.75.34-.75.76.336.761.75.761z" stroke="#4C75A5" stroke-miterlimit="10" stroke-linecap="round" stroke-linejoin="round"/></svg><svg viewBox="0 0 25 25" id="pinterest" xmlns="http://www.w3.org/2000/svg"><path d="M12.507 1a11.51 11.51 0 00-4.194 22.228c-.1-.91-.191-2.31.04-3.305.21-.898 1.35-5.72 1.35-5.72a4.158 4.158 0 01-.344-1.708c0-1.601.927-2.793 2.082-2.793.98 0 1.456.738 1.456 1.621 0 .988-.628 2.464-.953 3.832-.27 1.145.574 2.08 1.704 2.08 2.045 0 3.618-2.157 3.618-5.27 0-2.756-1.98-4.68-4.807-4.68-3.275 0-5.197 2.457-5.197 4.995 0 .99.378 2.05.857 2.626a.343.343 0 01.08.33c-.088.364-.282 1.146-.32 1.306-.05.21-.167.255-.385.15-1.434-.669-2.336-2.77-2.336-4.458 0-3.63 2.642-6.964 7.604-6.964 3.992 0 7.094 2.845 7.094 6.646 0 3.967-2.5 7.159-5.972 7.159-1.166 0-2.264-.604-2.637-1.322 0 0-.578 2.198-.717 2.736-.26 1-.962 2.252-1.434 3.018A11.51 11.51 0 1012.507 1" stroke="#4C75A5" stroke-miterlimit="10"/></svg><svg viewBox="0 0 69 68" id="player" xmlns="http://www.w3.org/2000/svg"><path d="M40.79 25.118l-9-4.5a1.124 1.124 0 00-1.628 1.007v9a1.124 1.124 0 001.628 1.007l9-4.5a1.124 1.124 0 000-2.014zm-8.378 3.687v-5.36l5.36 2.68-5.36 2.68zM11.037 45.25h-2.25a1.125 1.125 0 100 2.25h2.25a1.125 1.125 0 100-2.25zM29.037 45.25h-13.5a1.125 1.125 0 100 2.25h13.5a1.125 1.125 0 100-2.25zM11.037 49.75h-2.25a1.125 1.125 0 100 2.25h2.25a1.125 1.125 0 100-2.25zM29.037 49.75h-13.5a1.125 1.125 0 100 2.25h13.5a1.125 1.125 0 100-2.25zM11.037 54.25h-2.25a1.125 1.125 0 100 2.25h2.25a1.125 1.125 0 100-2.25zM29.037 54.25h-13.5a1.125 1.125 0 100 2.25h13.5a1.125 1.125 0 100-2.25z"/><path d="M67.287.25H2.037A1.125 1.125 0 00.912 1.375v58.5A1.125 1.125 0 002.037 61h38.25a.265.265 0 00.09-.023l.472.71c.37.552.565 1.202.563 1.867v3.071a1.125 1.125 0 001.125 1.125h15.75a1.125 1.125 0 001.125-1.125v-2.014a3.316 3.316 0 01.563-1.867l.753-1.114a6.89 6.89 0 00.349-.63h6.21a1.125 1.125 0 001.125-1.125v-58.5A1.125 1.125 0 0067.287.25zm-7.875 58.331a3.4 3.4 0 01-.563 1.8l-.742 1.114a5.579 5.579 0 00-.945 3.116v.889h-13.5v-1.946a5.579 5.579 0 00-.945-3.117l-7.729-11.61a2.258 2.258 0 011.699-.573 2.206 2.206 0 011.654.934l3.285 4.59a1.1 1.1 0 001.26.416 1.125 1.125 0 00.776-1.069v-20.25a1.125 1.125 0 112.25 0v13.5a1.125 1.125 0 102.25 0v-2.25a1.125 1.125 0 112.25 0v2.25a1.125 1.125 0 102.25 0v-2.25a1.125 1.125 0 112.25 0v2.25a1.125 1.125 0 102.25 0v-2.25a1.125 1.125 0 112.25 0v14.456zm6.75-17.831h-2.25a1.125 1.125 0 100 2.25h2.25v15.75h-4.511c0-.045.011-.09.011-.135v-14.49a3.385 3.385 0 00-3.375-3.375 3.346 3.346 0 00-2.25.877 3.323 3.323 0 00-4.5 0 3.346 3.346 0 00-2.25-.877 3.373 3.373 0 00-1.125.203v-8.078a3.375 3.375 0 00-6.75 0v16.74l-1.237-1.744a4.512 4.512 0 00-6.886-.529l-.55.563a1.126 1.126 0 00-.124 1.406l6.277 9.439H3.162V43h34.875a1.125 1.125 0 100-2.25H3.162V11.5h63v29.25zm0-31.5h-63V2.5h63v6.75z"/><path d="M7.662 4.75H6.537a1.125 1.125 0 000 2.25h1.125a1.125 1.125 0 000-2.25zM13.287 4.75h-1.125a1.125 1.125 0 100 2.25h1.125a1.125 1.125 0 100-2.25zM18.912 4.75h-1.125a1.125 1.125 0 100 2.25h1.125a1.125 1.125 0 100-2.25zM63.912 37.375v-22.5a1.125 1.125 0 00-1.125-1.125H6.537a1.125 1.125 0 00-1.125 1.125v22.5A1.125 1.125 0 006.537 38.5h31.5a1.125 1.125 0 100-2.25H7.662V16h54v20.25H51.537a1.125 1.125 0 100 2.25h11.25a1.125 1.125 0 001.125-1.125z"/></svg><svg fill="none" viewBox="0 0 46 74" id="proffy" xmlns="http://www.w3.org/2000/svg"><path d="M39 40.968c.5-.5 1.188-.382 1.817-.701 2.936-1.49 1.678-2.66 1.678-2.66-5.663 0-5.243-6.492-5.243-6.492V15.472c0-4.043-1.573-7.661-4.195-10.215A14.153 14.153 0 0022.886 1c-7.97 0-14.26 6.81-14.26 14.898V30.69c0 4.788-3.986 5.214-4.615 7.023-.524 1.49 2.99 1.755 3.49 2.755" stroke="#59738C" stroke-width="2" stroke-miterlimit="10" stroke-linecap="round" stroke-linejoin="round"/><path d="M23.096 36.755c-2.412 0-3.67-1.702-3.67-1.702s-2.412-2.448-4.928-4.47c-2.517-2.022-2.202-6.81-2.202-6.81-3.985-1.384-4.3-7.45-2.098-8.513 2.203-1.065 2.937 2.66 2.937 2.66s7.55-1.384 9.122-6.066c0 0 .105-1.596 2.727-.851 2.621.745 8.389 2.447 8.179 6.917 0 0 .734-3.618 2.936-2.66 2.202.957 1.887 7.13-2.097 8.513 0 0 .314 4.788-2.202 6.81-2.517 2.022-4.929 4.47-4.929 4.47s-1.468 1.702-3.775 1.702zM17.434 38.67v-5.32M20.265 46.545l-2.831-7.874s-2.622.638-3.88 1.915c-.315.32-.524.639-.734.958-.63 1.809-1.049 4.044-1.049 4.044s.688 1.064 3.729.957M28.549 38.67v-5.32M30.646 46.545c3.041.107 3.565-1.064 3.565-1.064s-.42-2.128-1.048-4.044c-.105-.319-.315-.638-.734-.957-1.363-1.277-3.88-1.916-3.88-1.916l-2.831 7.875" stroke="#59738C" stroke-width="2" stroke-miterlimit="10" stroke-linecap="round" stroke-linejoin="round"/><path d="M4.5 66.338H1V49.95c0-3.83 2.307-7.13 5.558-8.62 1.153-.531 2.411-.85 3.774-.85H13.5" stroke="#59738C" stroke-width="2" stroke-miterlimit="10" stroke-linecap="round" stroke-linejoin="round"/><path d="M41.342 46.545H4.746v22.88h36.596v-22.88z" stroke="#59738C" stroke-width="2" stroke-miterlimit="10" stroke-linecap="round" stroke-linejoin="round"/><path d="M38.825 72.936H7.158c-1.888 0-3.46-1.596-3.46-3.512h38.797c-.105 1.916-1.677 3.512-3.67 3.512zM23.097 59.315c.752 0 1.363-.62 1.363-1.383 0-.765-.61-1.384-1.363-1.384s-1.364.62-1.364 1.383c0 .765.61 1.384 1.364 1.384zM41.5 66.338h2.881V49.95c0-5.214-4.194-9.47-9.332-9.47l-2.549-.012" stroke="#59738C" stroke-width="2" stroke-miterlimit="10" stroke-linecap="round" stroke-linejoin="round"/></svg><svg viewBox="0 0 113 126" id="shoulder-strap" xmlns="http://www.w3.org/2000/svg"><path clip-rule="evenodd" d="M37.668 36.1a5.738 5.738 0 00-6.885 4.296 5.738 5.738 0 004.3 6.882 5.738 5.738 0 006.886-4.295 5.738 5.738 0 00-4.3-6.882zm-8.833 3.846a7.738 7.738 0 019.284-5.794 7.738 7.738 0 015.798 9.281 7.738 7.738 0 01-9.284 5.794 7.738 7.738 0 01-5.798-9.281z"/><path clip-rule="evenodd" d="M29.387 1.486a1 1 0 011.157.814l6.817 39.219a1 1 0 11-1.97.342L28.574 2.642a1 1 0 01.813-1.156zM65.117 57.92a1 1 0 01.326 1.013l-2.53 9.883 6.758 7.649a1 1 0 01-.67 1.659l-10.172.811-4.962 8.827a1 1 0 01-1.795-.107l-3.916-9.438-9.958-2.303a1 1 0 01-.411-1.745l7.822-6.462-1.046-10.221a1 1 0 011.523-.951l8.731 5.427 9.244-4.188a1 1 0 011.056.145zm-2.128 2.536l-7.833 3.548a1 1 0 01-.94-.062L46.76 59.31l.893 8.727a1 1 0 01-.358.873l-6.674 5.513 8.486 1.962a1 1 0 01.699.591l3.325 8.015 4.216-7.5a1 1 0 01.792-.506l8.708-.695-5.783-6.546c-.219-.248-.301-.589-.219-.91l2.144-8.377z"/><path clip-rule="evenodd" d="M29.403 20.874c-3.617-.836-7.5 1.413-8.382 5.23l-6.97 30.14c-.454 1.963-.194 3.798.769 5.341v.002l31.1 49.44.022.037c1.898 3.328 6.346 4.357 9.513 2.2a.535.535 0 01.034-.022l36.23-22.607c3.424-2.136 4.406-6.38 2.268-9.803L62.568 30.547c-.964-1.543-2.5-2.582-4.465-3.036l-28.7-6.637zm-10.331 4.779c1.14-4.934 6.129-7.803 10.781-6.728l28.7 6.637c2.414.558 4.431 1.877 5.711 3.926l31.419 50.285c2.723 4.36 1.457 9.838-2.905 12.56l-36.214 22.596c-4.124 2.794-9.869 1.466-12.349-2.855L13.127 62.649l-.001-.003c-1.28-2.048-1.58-4.44-1.023-6.852l6.97-30.141z"/></svg><svg fill="none" viewBox="0 0 20 19" id="tel" xmlns="http://www.w3.org/2000/svg"><path d="M3.08 2.37l.757-.757a2.093 2.093 0 012.96 0l.947.946a2.093 2.093 0 010 2.96l-.757.758M3.08 2.37S.516 4.556 7.692 11.732M6.987 6.277s-.207.447 2.753 3.407M13.13 12.42l.758-.757a2.093 2.093 0 012.96 0l.947.947a2.093 2.093 0 010 2.96l-.758.757M17.037 16.328s-2.185 2.564-9.362-4.613M13.13 12.42s-.447.207-3.407-2.753" stroke="#fff" stroke-miterlimit="10"/></svg><svg viewBox="0 0 21 19" id="telegram" xmlns="http://www.w3.org/2000/svg"><path d="M8.455 18.212v-5.676l7.612-6.848-9.977 5.736-4.844-2.458 18.859-7.55-3.115 16.796-6.286-3.687-2.249 3.687z" stroke="#4C75A5" stroke-miterlimit="10" stroke-linecap="round" stroke-linejoin="round"/></svg><svg viewBox="0 0 25 16" id="vk" xmlns="http://www.w3.org/2000/svg"><path d="M12.4 14.75h1.383s.404-.059.635-.293c.173-.234.173-.644.173-.644s0-1.931.865-2.165c.865-.293 1.96 1.814 3.114 2.633.865.644 1.557.469 1.557.469l3.114-.059s1.615-.117.865-1.405c-.057-.117-.461-.995-2.306-2.75-1.961-1.873-1.673-1.522.634-4.74 1.442-1.932 2.018-3.161 1.845-3.63-.173-.467-1.21-.35-1.21-.35H19.55s-.288-.059-.461.058c-.173.117-.288.41-.288.41s-.577 1.522-1.327 2.81c-1.557 2.691-2.191 2.867-2.422 2.691-.577-.41-.461-1.58-.461-2.4 0-2.633.403-3.686-.75-3.979-.404-.117-.634-.176-1.615-.176-1.269 0-2.307 0-2.941.293-.404.176-.692.644-.52.644.232 0 .75.175 1.039.527.346.468.346 1.638.346 1.638s.23 3.102-.461 3.453c-.462.293-1.154-.292-2.538-2.75A27.527 27.527 0 015.882 2.4s-.057-.176-.288-.293c-.23-.175-.519-.234-.519-.234H1.73s-.519 0-.692.234c-.173.176 0 .586 0 .586s2.595 6.203 5.594 9.363c2.71 2.927 5.767 2.693 5.767 2.693z" stroke="#4C75A5" stroke-miterlimit="10" stroke-linecap="round" stroke-linejoin="round"/></svg></svg>