<?xml version="1.0" encoding="utf-8"?><svg viewBox="0 0 25 25" xmlns="http://www.w3.org/2000/svg" xmlns:xlink="http://www.w3.org/1999/xlink"><style>:root>svg{display:none}:root>svg:target{display:block}</style><svg viewBox="0 0 13 25" id="fasebok" xmlns="http://www.w3.org/2000/svg"><path fill-rule="evenodd" clip-rule="evenodd" d="M3.48 18.345v-5.267c0-.293-.058-.41-.347-.351H1.52c-.231 0-.289-.059-.289-.293V9.157c0-.234.058-.293.289-.293H3.19c.346 0 .404-.117.404-.41V5.939c0-.995.288-1.99.865-2.81.75-1.053 1.845-1.52 3.056-1.58 1.27-.058 2.538 0 3.807-.058.173 0 .23.059.23.234V5.06c0 .176-.057.234-.23.234H9.477c-.807 0-1.326.41-1.384 1.23-.058.643 0 1.345 0 1.99 0 .233.115.233.288.233h2.769c.288 0 .346.059.346.351-.116 1.112-.231 2.224-.289 3.278 0 .234-.115.292-.346.292H8.67c-.52 0-.462-.058-.462.469v10.3c0 .35-.115.468-.461.468H3.941c-.346 0-.404-.117-.404-.41-.058-1.697-.058-3.453-.058-5.15z" stroke="#4C75A5" stroke-miterlimit="10" stroke-linecap="round" stroke-linejoin="round"/></svg><svg viewBox="0 0 23 24" id="instagram" xmlns="http://www.w3.org/2000/svg"><path d="M15.21 22.553H7.367c-3.576 0-6.46-2.926-6.46-6.555V8.04c0-3.628 2.884-6.555 6.46-6.555h7.843c3.576 0 6.46 2.927 6.46 6.555V16c0 3.628-2.884 6.554-6.46 6.554z" stroke="#4C75A5" stroke-miterlimit="10" stroke-linecap="round" stroke-linejoin="round"/><path d="M11.289 16.7c2.548 0 4.613-2.095 4.613-4.681s-2.065-4.682-4.613-4.682c-2.548 0-4.614 2.096-4.614 4.682 0 2.585 2.066 4.682 4.614 4.682zM17.056 6.634c.414 0 .75-.34.75-.76s-.336-.761-.75-.761-.75.34-.75.76.336.761.75.761z" stroke="#4C75A5" stroke-miterlimit="10" stroke-linecap="round" stroke-linejoin="round"/></svg><svg viewBox="0 0 25 25" id="pinterest" xmlns="http://www.w3.org/2000/svg"><path d="M12.507 1a11.51 11.51 0 00-4.194 22.228c-.1-.91-.191-2.31.04-3.305.21-.898 1.35-5.72 1.35-5.72a4.158 4.158 0 01-.344-1.708c0-1.601.927-2.793 2.082-2.793.98 0 1.456.738 1.456 1.621 0 .988-.628 2.464-.953 3.832-.27 1.145.574 2.08 1.704 2.08 2.045 0 3.618-2.157 3.618-5.27 0-2.756-1.98-4.68-4.807-4.68-3.275 0-5.197 2.457-5.197 4.995 0 .99.378 2.05.857 2.626a.343.343 0 01.08.33c-.088.364-.282 1.146-.32 1.306-.05.21-.167.255-.385.15-1.434-.669-2.336-2.77-2.336-4.458 0-3.63 2.642-6.964 7.604-6.964 3.992 0 7.094 2.845 7.094 6.646 0 3.967-2.5 7.159-5.972 7.159-1.166 0-2.264-.604-2.637-1.322 0 0-.578 2.198-.717 2.736-.26 1-.962 2.252-1.434 3.018A11.51 11.51 0 1012.507 1" stroke="#4C75A5" stroke-miterlimit="10"/></svg><svg fill="none" viewBox="0 0 20 19" id="tel" xmlns="http://www.w3.org/2000/svg"><path d="M3.08 2.37l.757-.757a2.093 2.093 0 012.96 0l.947.946a2.093 2.093 0 010 2.96l-.757.758M3.08 2.37S.516 4.556 7.692 11.732M6.987 6.277s-.207.447 2.753 3.407M13.13 12.42l.758-.757a2.093 2.093 0 012.96 0l.947.947a2.093 2.093 0 010 2.96l-.758.757M17.037 16.328s-2.185 2.564-9.362-4.613M13.13 12.42s-.447.207-3.407-2.753" stroke="#fff" stroke-miterlimit="10"/></svg><svg viewBox="0 0 21 19" id="telegram" xmlns="http://www.w3.org/2000/svg"><path d="M8.455 18.212v-5.676l7.612-6.848-9.977 5.736-4.844-2.458 18.859-7.55-3.115 16.796-6.286-3.687-2.249 3.687z" stroke="#4C75A5" stroke-miterlimit="10" stroke-linecap="round" stroke-linejoin="round"/></svg><svg viewBox="0 0 25 16" id="vk" xmlns="http://www.w3.org/2000/svg"><path d="M12.4 14.75h1.383s.404-.059.635-.293c.173-.234.173-.644.173-.644s0-1.931.865-2.165c.865-.293 1.96 1.814 3.114 2.633.865.644 1.557.469 1.557.469l3.114-.059s1.615-.117.865-1.405c-.057-.117-.461-.995-2.306-2.75-1.961-1.873-1.673-1.522.634-4.74 1.442-1.932 2.018-3.161 1.845-3.63-.173-.467-1.21-.35-1.21-.35H19.55s-.288-.059-.461.058c-.173.117-.288.41-.288.41s-.577 1.522-1.327 2.81c-1.557 2.691-2.191 2.867-2.422 2.691-.577-.41-.461-1.58-.461-2.4 0-2.633.403-3.686-.75-3.979-.404-.117-.634-.176-1.615-.176-1.269 0-2.307 0-2.941.293-.404.176-.692.644-.52.644.232 0 .75.175 1.039.527.346.468.346 1.638.346 1.638s.23 3.102-.461 3.453c-.462.293-1.154-.292-2.538-2.75A27.527 27.527 0 015.882 2.4s-.057-.176-.288-.293c-.23-.175-.519-.234-.519-.234H1.73s-.519 0-.692.234c-.173.176 0 .586 0 .586s2.595 6.203 5.594 9.363c2.71 2.927 5.767 2.693 5.767 2.693z" stroke="#4C75A5" stroke-miterlimit="10" stroke-linecap="round" stroke-linejoin="round"/></svg></svg>