<svg width="25" height="25" viewBox="0 0 25 25"  xmlns="http://www.w3.org/2000/svg">
<path d="M12.5072 1C9.82523 1.00073 7.22773 1.93798 5.16321 3.64989C3.0987 5.36179 1.69679 7.74089 1.19957 10.3763C0.702342 13.0118 1.14102 15.7381 2.43986 18.0846C3.73869 20.4311 5.81613 22.2503 8.31345 23.2282C8.21307 22.3173 8.12176 20.9174 8.35344 19.9235C8.56249 19.0247 9.7028 14.203 9.7028 14.203C9.46868 13.6642 9.3514 13.0819 9.35867 12.4945C9.35867 10.8938 10.2862 9.70216 11.4408 9.70216C12.4219 9.70216 12.8973 10.4395 12.8973 11.3232C12.8973 12.3111 12.2687 13.7872 11.9442 15.1554C11.6733 16.3003 12.5185 17.2346 13.6482 17.2346C15.6934 17.2346 17.2662 15.0777 17.2662 11.9647C17.2662 9.20936 15.2859 7.28569 12.4589 7.28569C9.18434 7.28569 7.26218 9.74216 7.26218 12.2801C7.26218 13.2695 7.63952 14.3298 8.11874 14.9064C8.1595 14.9497 8.1883 15.0029 8.20233 15.0607C8.21635 15.1185 8.21511 15.179 8.19873 15.2362C8.11119 15.5999 7.91724 16.3818 7.87875 16.5418C7.82894 16.7523 7.71197 16.7969 7.49387 16.6927C6.05999 16.0233 5.15815 13.9223 5.15815 12.2341C5.15815 8.60411 7.79951 5.26995 12.7623 5.26995C16.7545 5.26995 19.8562 8.11508 19.8562 11.9164C19.8562 15.883 17.3552 19.0745 13.8845 19.0745C12.7177 19.0745 11.6204 18.4707 11.2469 17.753C11.2469 17.753 10.6695 19.9507 10.5299 20.4887C10.2696 21.4887 9.56847 22.7414 9.09604 23.5074C10.6782 23.9956 12.3471 24.1367 13.9888 23.921C15.6304 23.7054 17.2062 23.138 18.6086 22.2577C20.011 21.3774 21.2069 20.2049 22.1148 18.8202C23.0227 17.4355 23.6211 15.8713 23.8692 14.2342C24.1173 12.5971 24.0093 10.9258 23.5525 9.33425C23.0957 7.74273 22.3008 6.26851 21.2223 5.01222C20.1437 3.75592 18.8068 2.74714 17.3027 2.05471C15.7987 1.36229 14.1629 1.00253 12.5072 1" stroke="#4C75A5" stroke-miterlimit="10"/>
</svg>
