<svg width="20" height="19" viewBox="0 0 20 19" fill="none" xmlns="http://www.w3.org/2000/svg">
<path d="M3.08939 2.37924L3.84675 1.62188C4.65574 0.812892 5.9811 0.795679 6.80731 1.62188L7.754 2.56857C8.56299 3.37756 8.5802 4.70293 7.754 5.52914L6.99665 6.28649" stroke="#314961" stroke-miterlimit="10"/>
<path d="M3.08922 2.37889C3.08922 2.37889 0.524548 4.56489 7.70219 11.7425" stroke="#314961" stroke-miterlimit="10"/>
<path d="M6.99646 6.28662C6.99646 6.28662 6.78991 6.73415 9.75047 9.69471" stroke="#314961" stroke-miterlimit="10"/>
<path d="M13.1414 12.4315L13.8987 11.6741C14.7077 10.8651 16.0331 10.8479 16.8593 11.6741L17.806 12.6208C18.615 13.4298 18.6322 14.7552 17.806 15.5814L17.0486 16.3387" stroke="#314961" stroke-miterlimit="10"/>
<path d="M17.0486 16.3389C17.0486 16.3389 14.8626 18.9036 7.68497 11.7259" stroke="#314961" stroke-miterlimit="10"/>
<path d="M13.1414 12.4316C13.1414 12.4316 12.6938 12.6382 9.73326 9.67762" stroke="#314961" stroke-miterlimit="10"/>
</svg>
