<svg width="69" height="68" viewBox="0 0 69 68"  xmlns="http://www.w3.org/2000/svg">
<path d="M40.7899 25.1182L31.7899 20.6182C31.6183 20.5324 31.4277 20.492 31.2361 20.5007C31.0445 20.5093 30.8583 20.5669 30.6952 20.6677C30.5321 20.7686 30.3975 20.9095 30.3042 21.0771C30.2108 21.2446 30.1619 21.4333 30.162 21.625V30.625C30.1619 30.8168 30.2108 31.0054 30.3042 31.173C30.3975 31.3405 30.5321 31.4815 30.6952 31.5823C30.8583 31.6832 31.0445 31.7407 31.2361 31.7494C31.4277 31.7581 31.6183 31.7176 31.7899 31.6319L40.7899 27.1319C40.9771 27.0386 41.1346 26.895 41.2446 26.7171C41.3547 26.5392 41.413 26.3342 41.413 26.125C41.413 25.9159 41.3547 25.7108 41.2446 25.533C41.1346 25.3551 40.9771 25.2115 40.7899 25.1182ZM32.412 28.8048V23.4453L37.7715 26.125L32.412 28.8048Z" />
<path d="M11.037 45.25H8.78699C8.48862 45.25 8.20247 45.3685 7.99149 45.5795C7.78051 45.7905 7.66199 46.0766 7.66199 46.375C7.66199 46.6734 7.78051 46.9595 7.99149 47.1705C8.20247 47.3815 8.48862 47.5 8.78699 47.5H11.037C11.3354 47.5 11.6215 47.3815 11.8325 47.1705C12.0435 46.9595 12.162 46.6734 12.162 46.375C12.162 46.0766 12.0435 45.7905 11.8325 45.5795C11.6215 45.3685 11.3354 45.25 11.037 45.25Z" />
<path d="M29.037 45.25H15.537C15.2386 45.25 14.9525 45.3685 14.7415 45.5795C14.5305 45.7905 14.412 46.0766 14.412 46.375C14.412 46.6734 14.5305 46.9595 14.7415 47.1705C14.9525 47.3815 15.2386 47.5 15.537 47.5H29.037C29.3354 47.5 29.6215 47.3815 29.8325 47.1705C30.0435 46.9595 30.162 46.6734 30.162 46.375C30.162 46.0766 30.0435 45.7905 29.8325 45.5795C29.6215 45.3685 29.3354 45.25 29.037 45.25Z" />
<path d="M11.037 49.75H8.78699C8.48862 49.75 8.20247 49.8685 7.99149 50.0795C7.78051 50.2905 7.66199 50.5766 7.66199 50.875C7.66199 51.1734 7.78051 51.4595 7.99149 51.6705C8.20247 51.8815 8.48862 52 8.78699 52H11.037C11.3354 52 11.6215 51.8815 11.8325 51.6705C12.0435 51.4595 12.162 51.1734 12.162 50.875C12.162 50.5766 12.0435 50.2905 11.8325 50.0795C11.6215 49.8685 11.3354 49.75 11.037 49.75Z" />
<path d="M29.037 49.75H15.537C15.2386 49.75 14.9525 49.8685 14.7415 50.0795C14.5305 50.2905 14.412 50.5766 14.412 50.875C14.412 51.1734 14.5305 51.4595 14.7415 51.6705C14.9525 51.8815 15.2386 52 15.537 52H29.037C29.3354 52 29.6215 51.8815 29.8325 51.6705C30.0435 51.4595 30.162 51.1734 30.162 50.875C30.162 50.5766 30.0435 50.2905 29.8325 50.0795C29.6215 49.8685 29.3354 49.75 29.037 49.75Z" />
<path d="M11.037 54.25H8.78699C8.48862 54.25 8.20247 54.3685 7.99149 54.5795C7.78051 54.7905 7.66199 55.0766 7.66199 55.375C7.66199 55.6734 7.78051 55.9595 7.99149 56.1705C8.20247 56.3815 8.48862 56.5 8.78699 56.5H11.037C11.3354 56.5 11.6215 56.3815 11.8325 56.1705C12.0435 55.9595 12.162 55.6734 12.162 55.375C12.162 55.0766 12.0435 54.7905 11.8325 54.5795C11.6215 54.3685 11.3354 54.25 11.037 54.25Z" />
<path d="M29.037 54.25H15.537C15.2386 54.25 14.9525 54.3685 14.7415 54.5795C14.5305 54.7905 14.412 55.0766 14.412 55.375C14.412 55.6734 14.5305 55.9595 14.7415 56.1705C14.9525 56.3815 15.2386 56.5 15.537 56.5H29.037C29.3354 56.5 29.6215 56.3815 29.8325 56.1705C30.0435 55.9595 30.162 55.6734 30.162 55.375C30.162 55.0766 30.0435 54.7905 29.8325 54.5795C29.6215 54.3685 29.3354 54.25 29.037 54.25Z" />
<path d="M67.287 0.25H2.03699C1.73862 0.25 1.45247 0.368526 1.24149 0.579505C1.03051 0.790483 0.911987 1.07663 0.911987 1.375V59.875C0.911987 60.1734 1.03051 60.4595 1.24149 60.6705C1.45247 60.8815 1.73862 61 2.03699 61H40.287C40.3181 60.9979 40.3485 60.9902 40.377 60.9775L40.8495 61.6862C41.2185 62.239 41.4144 62.8892 41.412 63.5537V66.625C41.412 66.9234 41.5305 67.2095 41.7415 67.4205C41.9525 67.6315 42.2386 67.75 42.537 67.75H58.287C58.5854 67.75 58.8715 67.6315 59.0825 67.4205C59.2935 67.2095 59.412 66.9234 59.412 66.625V64.6113C59.408 63.9464 59.604 63.2958 59.9745 62.7437L60.7282 61.63C60.8554 61.4262 60.9718 61.2159 61.077 61H67.287C67.5854 61 67.8715 60.8815 68.0825 60.6705C68.2935 60.4595 68.412 60.1734 68.412 59.875V1.375C68.412 1.07663 68.2935 0.790483 68.0825 0.579505C67.8715 0.368526 67.5854 0.25 67.287 0.25ZM59.412 58.5812C59.398 59.2223 59.203 59.8463 58.8495 60.3813L58.107 61.495C57.4891 62.4167 57.1601 63.5016 57.162 64.6113V65.5H43.662V63.5537C43.6639 62.4441 43.3349 61.3592 42.717 60.4375L34.9882 48.8275C35.2172 48.621 35.4861 48.4635 35.7783 48.3649C36.0704 48.2662 36.3797 48.2284 36.687 48.2537C37.0148 48.2763 37.3335 48.3718 37.6196 48.5333C37.9057 48.6949 38.1521 48.9184 38.3407 49.1875L41.6257 53.7775C41.7617 53.9747 41.9584 54.1221 42.1858 54.1972C42.4133 54.2724 42.659 54.2711 42.8857 54.1938C43.1113 54.1202 43.3078 53.9772 43.4472 53.7853C43.5866 53.5933 43.6618 53.3622 43.662 53.125V32.875C43.662 32.5766 43.7805 32.2905 43.9915 32.0795C44.2025 31.8685 44.4886 31.75 44.787 31.75C45.0854 31.75 45.3715 31.8685 45.5825 32.0795C45.7935 32.2905 45.912 32.5766 45.912 32.875V46.375C45.912 46.6734 46.0305 46.9595 46.2415 47.1705C46.4525 47.3815 46.7386 47.5 47.037 47.5C47.3354 47.5 47.6215 47.3815 47.8325 47.1705C48.0435 46.9595 48.162 46.6734 48.162 46.375V44.125C48.162 43.8266 48.2805 43.5405 48.4915 43.3295C48.7025 43.1185 48.9886 43 49.287 43C49.5854 43 49.8715 43.1185 50.0825 43.3295C50.2935 43.5405 50.412 43.8266 50.412 44.125V46.375C50.412 46.6734 50.5305 46.9595 50.7415 47.1705C50.9525 47.3815 51.2386 47.5 51.537 47.5C51.8354 47.5 52.1215 47.3815 52.3325 47.1705C52.5435 46.9595 52.662 46.6734 52.662 46.375V44.125C52.662 43.8266 52.7805 43.5405 52.9915 43.3295C53.2025 43.1185 53.4886 43 53.787 43C54.0854 43 54.3715 43.1185 54.5825 43.3295C54.7935 43.5405 54.912 43.8266 54.912 44.125V46.375C54.912 46.6734 55.0305 46.9595 55.2415 47.1705C55.4525 47.3815 55.7386 47.5 56.037 47.5C56.3354 47.5 56.6215 47.3815 56.8325 47.1705C57.0435 46.9595 57.162 46.6734 57.162 46.375V44.125C57.162 43.8266 57.2805 43.5405 57.4915 43.3295C57.7025 43.1185 57.9886 43 58.287 43C58.5854 43 58.8715 43.1185 59.0825 43.3295C59.2935 43.5405 59.412 43.8266 59.412 44.125V58.5812ZM66.162 40.75H63.912C63.6136 40.75 63.3275 40.8685 63.1165 41.0795C62.9055 41.2905 62.787 41.5766 62.787 41.875C62.787 42.1734 62.9055 42.4595 63.1165 42.6705C63.3275 42.8815 63.6136 43 63.912 43H66.162V58.75H61.6507C61.6507 58.705 61.662 58.66 61.662 58.615V44.125C61.6593 43.2307 61.3029 42.3738 60.6705 41.7415C60.0382 41.1091 59.1813 40.7527 58.287 40.75C57.4539 40.7522 56.6516 41.0651 56.037 41.6275C55.4236 41.0632 54.6205 40.75 53.787 40.75C52.9535 40.75 52.1504 41.0632 51.537 41.6275C50.9224 41.0651 50.1201 40.7522 49.287 40.75C48.9032 40.753 48.5227 40.8215 48.162 40.9525V32.875C48.162 31.9799 47.8064 31.1214 47.1735 30.4885C46.5405 29.8556 45.6821 29.5 44.787 29.5C43.8919 29.5 43.0334 29.8556 42.4005 30.4885C41.7676 31.1214 41.412 31.9799 41.412 32.875V49.615L40.1745 47.8713C39.7908 47.3368 39.2949 46.8927 38.7215 46.5701C38.1481 46.2475 37.5111 46.0543 36.8551 46.0039C36.1991 45.9535 35.54 46.0472 34.9241 46.2785C34.3082 46.5097 33.7503 46.8729 33.2895 47.3425L32.7382 47.905C32.5602 48.0901 32.4509 48.3305 32.4283 48.5863C32.4058 48.8421 32.4715 49.0979 32.6145 49.3112L38.892 58.75H3.16199V43H38.037C38.3354 43 38.6215 42.8815 38.8325 42.6705C39.0435 42.4595 39.162 42.1734 39.162 41.875C39.162 41.5766 39.0435 41.2905 38.8325 41.0795C38.6215 40.8685 38.3354 40.75 38.037 40.75H3.16199V11.5H66.162V40.75ZM66.162 9.25H3.16199V2.5H66.162V9.25Z" />
<path d="M7.66199 4.75H6.53699C6.23862 4.75 5.95247 4.86853 5.74149 5.07951C5.53051 5.29048 5.41199 5.57663 5.41199 5.875C5.41199 6.17337 5.53051 6.45952 5.74149 6.67049C5.95247 6.88147 6.23862 7 6.53699 7H7.66199C7.96036 7 8.2465 6.88147 8.45748 6.67049C8.66846 6.45952 8.78699 6.17337 8.78699 5.875C8.78699 5.57663 8.66846 5.29048 8.45748 5.07951C8.2465 4.86853 7.96036 4.75 7.66199 4.75Z" />
<path d="M13.287 4.75H12.162C11.8636 4.75 11.5775 4.86853 11.3665 5.07951C11.1555 5.29048 11.037 5.57663 11.037 5.875C11.037 6.17337 11.1555 6.45952 11.3665 6.67049C11.5775 6.88147 11.8636 7 12.162 7H13.287C13.5854 7 13.8715 6.88147 14.0825 6.67049C14.2935 6.45952 14.412 6.17337 14.412 5.875C14.412 5.57663 14.2935 5.29048 14.0825 5.07951C13.8715 4.86853 13.5854 4.75 13.287 4.75Z" />
<path d="M18.912 4.75H17.787C17.4886 4.75 17.2025 4.86853 16.9915 5.07951C16.7805 5.29048 16.662 5.57663 16.662 5.875C16.662 6.17337 16.7805 6.45952 16.9915 6.67049C17.2025 6.88147 17.4886 7 17.787 7H18.912C19.2104 7 19.4965 6.88147 19.7075 6.67049C19.9185 6.45952 20.037 6.17337 20.037 5.875C20.037 5.57663 19.9185 5.29048 19.7075 5.07951C19.4965 4.86853 19.2104 4.75 18.912 4.75Z" />
<path d="M63.912 37.375V14.875C63.912 14.5766 63.7935 14.2905 63.5825 14.0795C63.3715 13.8685 63.0854 13.75 62.787 13.75H6.53699C6.23862 13.75 5.95247 13.8685 5.74149 14.0795C5.53051 14.2905 5.41199 14.5766 5.41199 14.875V37.375C5.41199 37.6734 5.53051 37.9595 5.74149 38.1705C5.95247 38.3815 6.23862 38.5 6.53699 38.5H38.037C38.3354 38.5 38.6215 38.3815 38.8325 38.1705C39.0435 37.9595 39.162 37.6734 39.162 37.375C39.162 37.0766 39.0435 36.7905 38.8325 36.5795C38.6215 36.3685 38.3354 36.25 38.037 36.25H7.66199V16H61.662V36.25H51.537C51.2386 36.25 50.9525 36.3685 50.7415 36.5795C50.5305 36.7905 50.412 37.0766 50.412 37.375C50.412 37.6734 50.5305 37.9595 50.7415 38.1705C50.9525 38.3815 51.2386 38.5 51.537 38.5H62.787C63.0854 38.5 63.3715 38.3815 63.5825 38.1705C63.7935 37.9595 63.912 37.6734 63.912 37.375Z" />
</svg>
