<svg width="43" height="70" fill="none" xmlns="http://www.w3.org/2000/svg"><path d="M36.955 38.816c.473-.473 1.123-.36 1.719-.663 2.778-1.41 1.587-2.517 1.587-2.517-5.357 0-4.96-6.142-4.96-6.142V14.693c0-3.826-1.489-7.25-3.97-9.666A13.391 13.391 0 0021.709 1C14.168 1 8.215 7.444 8.215 15.096v13.996c0 4.53-3.77 4.933-4.366 6.645-.496 1.41 2.828 1.66 3.301 2.606" stroke="#59738C" stroke-width="1.6" stroke-miterlimit="10" stroke-linecap="round" stroke-linejoin="round"/><path d="M21.907 34.83c-2.282 0-3.473-1.61-3.473-1.61s-2.282-2.316-4.663-4.23c-2.38-1.912-2.083-6.443-2.083-6.443-3.77-1.31-4.068-7.048-1.985-8.055 2.084-1.007 2.779 2.517 2.779 2.517s7.143-1.309 8.631-5.739c0 0 .1-1.51 2.58-.806 2.48.705 7.937 2.316 7.739 6.545 0 0 .694-3.423 2.778-2.517 2.083.906 1.785 6.746-1.985 8.055 0 0 .298 4.53-2.083 6.444-2.381 1.913-4.663 4.229-4.663 4.229s-1.39 1.61-3.572 1.61zm-5.358 1.813v-5.034m2.679 12.485l-2.679-7.45s-2.48.603-3.67 1.811c-.298.303-.497.605-.695.907-.595 1.711-.992 3.826-.992 3.826s.65 1.006 3.527.906m12.347-7.451v-5.034m1.984 12.485c2.878.1 3.374-1.007 3.374-1.007s-.397-2.014-.992-3.826c-.1-.302-.298-.604-.695-.906-1.29-1.209-3.67-1.813-3.67-1.813l-2.68 7.451" stroke="#59738C" stroke-width="1.6" stroke-miterlimit="10" stroke-linecap="round" stroke-linejoin="round"/><path d="M4.312 62.821H1V47.316c0-3.625 2.183-6.746 5.258-8.156a8.455 8.455 0 013.572-.805h2.997" stroke="#59738C" stroke-width="1.6" stroke-miterlimit="10" stroke-linecap="round" stroke-linejoin="round"/><path d="M39.17 44.094H4.545V65.74h34.627V44.094zm-2.38 24.97H6.825c-1.786 0-3.274-1.51-3.274-3.322h36.71c-.1 1.812-1.588 3.322-3.473 3.322z" stroke="#59738C" stroke-width="1.6" stroke-miterlimit="10" stroke-linecap="round" stroke-linejoin="round"/><path d="M21.907 56.176a1.3 1.3 0 001.29-1.309 1.3 1.3 0 00-1.29-1.309 1.3 1.3 0 00-1.29 1.309 1.3 1.3 0 001.29 1.309zm17.413 6.645h2.726V47.316c0-4.934-3.968-8.961-8.83-8.961l-2.412-.011" stroke="#59738C" stroke-width="1.6" stroke-miterlimit="10" stroke-linecap="round" stroke-linejoin="round"/></svg>