<svg viewBox="0 0 512 512" xmlns="http://www.w3.org/2000/svg" xmlns:xlink="http://www.w3.org/1999/xlink"><style>:root&gt;svg{display:none}:root&gt;svg:target{display:block}</style><svg fill="none" viewBox="0 0 28 51" id="auto" xmlns="http://www.w3.org/2000/svg"><path d="M26.09 5.004v40.8c0 2.1-1.7 3.8-3.8 3.8H5.19c-2.1 0-3.8-1.7-3.8-3.8v-40.8c0-2.1 1.7-3.8 3.8-3.8h17.1c2.1 0 3.8 1.7 3.8 3.8z" stroke="#CCDAEA" stroke-width="2" stroke-miterlimit="10" stroke-linecap="round" stroke-linejoin="round"/><path d="M15.49 27.604h-3.4c-.6 0-1.1-.5-1.1-1.1v-3.4c0-.6.5-1.1 1.1-1.1h3.4c.6 0 1.1.5 1.1 1.1v3.4c-.1.7-.5 1.1-1.1 1.1zm-4.5-9.9h5.5l-2.7-4.3-2.8 4.3zm5.5 14.401h-5.5l2.8 4.2 2.7-4.2zm-.1-30.901c-.5.9-1.5 1.5-2.6 1.5s-2.1-.6-2.6-1.5h5.2z" stroke="#CCDAEA" stroke-width="2" stroke-miterlimit="10" stroke-linecap="round" stroke-linejoin="round"/></svg><svg fill="none" viewBox="0 0 44 72" id="catalog" xmlns="http://www.w3.org/2000/svg"><path d="M42.826 12h-41v59h41V12zm-16-6.1l8-1.9v8m-33 0l24.6-6 .4-.1V1l-25 11z" stroke="#59738C" stroke-width="2" stroke-miterlimit="10" stroke-linecap="round" stroke-linejoin="round"/><path d="M21.826 18h-16v23h16V18zm17 28h-13v19h13V46zm-12-25h12m-12 4.5h6m-6 4.5h9m-30 17h9m-9 4.5h12m-12 4.5h6" stroke="#59738C" stroke-width="2" stroke-miterlimit="10" stroke-linecap="round" stroke-linejoin="round"/><path d="M12.226 18v12h9.6m-16 6.1s4-1.1 9-.1v5" stroke="#59738C" stroke-width="2" stroke-miterlimit="10" stroke-linecap="round" stroke-linejoin="round"/></svg><svg viewBox="0 0 125 92" id="cattalog" xmlns="http://www.w3.org/2000/svg"><path clip-rule="evenodd" d="M53.88 1.988a1 1 0 011.054-.943l68.365 3.81a1 1 0 01.943 1.054l-4.71 84.524a1 1 0 01-1.054.942l-68.365-3.809a1 1 0 01-.943-1.054l4.71-84.524zm1.941 1.11l-4.598 82.527 66.368 3.698 4.598-82.527-66.368-3.698zM49.18 14.785a1 1 0 01-.642 1.26l-18.213 5.913 13.873 41.618a1 1 0 11-1.897.633L28.109 21.634a1 1 0 01.64-1.267l19.17-6.225a1 1 0 011.26.643zM24.765 28.182a1 1 0 01-.582 1.29l-8.135 3.078 28.825 52.52a1 1 0 11-1.753.962l-29.38-53.53a1 1 0 01.523-1.416l9.212-3.485a1 1 0 011.29.581zM11.198 41.9a1 1 0 01-.232 1.395l-7.754 5.538L35.99 81.61a1 1 0 01-1.414 1.414L.964 49.413a1 1 0 01.125-1.521l8.714-6.224a1 1 0 011.395.232z"/><path clip-rule="evenodd" d="M63.78 12.209a1 1 0 011.054-.943l48.725 2.715a1 1 0 01.943 1.054l-1.634 29.335a1 1 0 01-1.054.943l-48.726-2.715a1 1 0 01-.943-1.054l1.635-29.335zm1.94 1.11l-1.522 27.337 46.728 2.604 1.524-27.338-46.73-2.603zm7.652 40.06a1 1 0 011.054-.944l36.35 1.992a1 1 0 01-.11 1.997l-36.35-1.992a1 1 0 01-.944-1.053zm-.746 10.957a1 1 0 011.05-.946l14.192.747a1 1 0 11-.105 1.997l-14.191-.747a1 1 0 01-.947-1.051zm-.996 10.948a1 1 0 011.06-.937l24.399 1.494a1 1 0 01-.123 1.997l-24.399-1.494a1 1 0 01-.937-1.06zm-6.222-25.082a2.237 2.237 0 100 4.473 2.237 2.237 0 000-4.473zm-4.237 2.237a4.237 4.237 0 118.474 0 4.237 4.237 0 01-8.474 0zm3.49 20.667a2.237 2.237 0 100 4.474 2.237 2.237 0 000-4.474zm-4.237 2.237a4.237 4.237 0 118.474 0 4.237 4.237 0 01-8.474 0z"/><path clip-rule="evenodd" d="M84.15 12.352a1 1 0 01.928 1.066l-1.176 17.179 12.185.855.938-16.417a1 1 0 111.997.114l-.996 17.428a1 1 0 01-1.069.941l-14.191-.996a1 1 0 01-.928-1.066l1.245-18.175a1 1 0 011.066-.93zM64.66 32.52l-.207-.977a1 1 0 00.415 1.956h.003l.014-.003.062-.013.252-.047a28.556 28.556 0 014.154-.414c2.372-.056 5.029.214 6.974 1.287l-.465 8.364a1 1 0 101.997.111l.498-8.963a1 1 0 00-.444-.887c-2.51-1.674-5.951-1.974-8.608-1.91a30.54 30.54 0 00-4.459.444 16.767 16.767 0 00-.362.068l-.021.005h-.006l-.002.001s-.002 0 .206.979z"/></svg><svg fill="none" viewBox="0 0 55 73" id="content" xmlns="http://www.w3.org/2000/svg"><path d="M53.701 1H1v70.701h52.701V1z" stroke="#59738C" stroke-width="2" stroke-linecap="round" stroke-linejoin="round"/><path d="M45.014 20.306H9.684v6.199h35.33v-6.2zm-3.617 32.089H13.406a.667.667 0 01-.673-.657V31.706c0 .183.05 2.27 2.17 6.618 0 0 1.582 2.542-.496 2.542H42.07" stroke="#59738C" stroke-width="2" stroke-linecap="round" stroke-linejoin="round"/><path d="M14.407 40.866c2.092 0 .496-2.542.496-2.542-2.12-4.344-2.158-6.435-2.158-6.618" stroke="#59738C" stroke-width="2" stroke-linecap="round" stroke-linejoin="round"/><path d="M15.136 46.63c1.115 0 .063-1.889.063-1.889-2.018-2.605-2.451-3.884-2.451-3.884h29.337m-.015 5.773H12.745s.433 1.272 2.451 3.883c0 0 1.052 1.891-.063 1.891M43.48 40.867h-2.062m.652 0c.373.627.92 2.004 1.793 3.883 0 0 1.053 1.889-.062 1.889m-3.055 5.756h3.06c1.116 0 .063-1.89.063-1.89-.675-1.56-1.425-3.245-1.793-3.885m-.658.01h2.389M12.733 26.505v5.201m28.882-5.195v5.186s-.05 2.077 2.17 6.633c0 0 1.582 2.542-.496 2.542m-5.273-14.367v18.218" stroke="#59738C" stroke-width="2" stroke-linecap="round" stroke-linejoin="round"/><path d="M39.054 45.757a1.034 1.034 0 00-2.069 0v1.177a1.034 1.034 0 002.069 0v-1.177z" fill="#fff" stroke="#59738C" stroke-width="2" stroke-linecap="round" stroke-linejoin="round"/><path d="M53.701 10.838l-4.923-4.92L43.858 1H53.7v9.838z" stroke="#59738C" stroke-width="2" stroke-linecap="round" stroke-linejoin="round"/></svg><svg viewBox="0 0 117 102" id="corona" xmlns="http://www.w3.org/2000/svg"><path clip-rule="evenodd" d="M52.754 18.641a1 1 0 01.888 1.1L49.77 55.91a1 1 0 01-1.815.465L30.427 31.248a1 1 0 011.64-1.144l15.998 22.933 3.589-33.508a1 1 0 011.1-.888zM11.023 40.29a1 1 0 011.335.469L34.979 87.83l28.969-5.074a1 1 0 01.345 1.97L34.578 89.93a1 1 0 01-1.074-.552L10.555 41.625a1 1 0 01.468-1.334z"/><path clip-rule="evenodd" d="M30.696 29.763a1 1 0 011.076.917l2.458 30.682a1 1 0 01-1.682.808L11.006 41.88a1 1 0 111.371-1.457l19.652 18.51-2.25-28.094a1 1 0 01.917-1.076zm3.537 58.198a1 1 0 011.158.813l1.363 7.782a1 1 0 11-1.97.345L33.42 89.12a1 1 0 01.812-1.158zm3.966-21.558a1 1 0 011.336.463l6.848 14.114a1 1 0 11-1.8.873l-6.847-14.114a1 1 0 01.463-1.336zm13.751-4.39a1 1 0 011.232.695l4.584 16.455a1 1 0 01-1.927.537l-4.584-16.455a1 1 0 01.695-1.232z"/><path clip-rule="evenodd" d="M29.142 22.823a3.55 3.55 0 101.225 6.992 3.55 3.55 0 00-1.225-6.992zm-4.853 4.453a5.55 5.55 0 1110.932-1.915 5.55 5.55 0 01-10.932 1.915zM8.685 33.699A3.549 3.549 0 109.91 40.69a3.549 3.549 0 00-1.225-6.992zm-4.853 4.453a5.55 5.55 0 1110.931-1.915 5.55 5.55 0 01-10.931 1.915zm47.654-26.534a3.55 3.55 0 101.225 6.992 3.55 3.55 0 00-1.224-6.992zm-4.853 4.453a5.55 5.55 0 1110.932-1.915 5.55 5.55 0 01-10.932 1.915zM34.784 96.9a1 1 0 01.812-1.158l29.715-5.205a1 1 0 01.345 1.97l-29.715 5.205a1 1 0 01-1.157-.812zm42.423-75.286a1 1 0 011.228.701l7.433 27.187 12.19-24.088a1 1 0 011.784.903L86.481 52.72a1 1 0 01-1.857-.188l-8.118-29.69a1 1 0 01.7-1.229z"/><path clip-rule="evenodd" d="M99.287 24.83a1 1 0 01.894 1.097l-5.35 52.71a1 1 0 01-.823.885l-29.715 5.205a1 1 0 01-.345-1.97l28.969-5.075 5.274-51.957a1 1 0 011.096-.894zm-46.606-6.176a1 1 0 011.337.46l14.778 30.319 7.475-27.079a1 1 0 011.928.532l-8.18 29.63a1 1 0 01-1.862.171L52.221 19.991a1 1 0 01.46-1.337z"/><path clip-rule="evenodd" d="M93.663 77.551a1 1 0 011.157.812l1.364 7.783a1 1 0 11-1.97.345l-1.364-7.782a1 1 0 01.813-1.158zM82.605 58.623a1 1 0 01.89 1.1l-1.643 15.6a1 1 0 01-1.989-.21l1.643-15.6a1 1 0 011.099-.89zm-14.425.547a1 1 0 011.072.922l1.283 17.033a1 1 0 11-1.995.15l-1.282-17.033a1 1 0 01.922-1.072zm8.13-44.609a3.55 3.55 0 101.224 6.992 3.55 3.55 0 00-1.225-6.992zm-4.854 4.454A5.55 5.55 0 1182.387 17.1a5.55 5.55 0 01-10.931 1.915zm27.789-1.179a3.549 3.549 0 101.225 6.991 3.549 3.549 0 00-1.225-6.991zm-4.854 4.453a5.55 5.55 0 1110.932-1.915 5.55 5.55 0 01-10.931 1.915zM51.486 11.618a3.55 3.55 0 101.225 6.992 3.55 3.55 0 00-1.224-6.992zm-4.853 4.453a5.55 5.55 0 1110.932-1.915 5.55 5.55 0 01-10.932 1.915z"/><path clip-rule="evenodd" d="M64.499 91.696a1 1 0 01.812-1.158l29.715-5.205a1 1 0 01.345 1.97l-29.715 5.205a1 1 0 01-1.157-.812z"/></svg><svg fill="none" viewBox="0 0 46 47" id="day" xmlns="http://www.w3.org/2000/svg"><path d="M44.083 1.256H1.098v7.18h42.985v-7.18zM3.655 27.125s-3.05 4.624 0 4.624H22.64" stroke="#CCDAEA" stroke-width="2" stroke-miterlimit="10" stroke-linecap="round" stroke-linejoin="round"/><path d="M41.525 27.125s3.05 4.624 0 4.624H22.541M3.655 42.372s-3.05 2.754 0 2.754H22.64" stroke="#CCDAEA" stroke-width="2" stroke-miterlimit="10" stroke-linecap="round" stroke-linejoin="round"/><path d="M41.525 42.372s3.05 2.754 0 2.754H22.541m.099-18H3.654c-3.05 0 0-4.623 0-4.623V8.83h37.969l-.099 13.574s3.05 4.623 0 4.623c-2.95.099-18.886.099-18.886.099zM3.655 42.372V31.749h37.969v10.623M3.655 22.404h37.87m-37.87-6.885h37.969" stroke="#CCDAEA" stroke-width="2" stroke-miterlimit="10" stroke-linecap="round" stroke-linejoin="round"/></svg><svg fill="none" viewBox="0 0 44 45" id="edging" xmlns="http://www.w3.org/2000/svg"><path d="M42.736 1.28H1.734v6.85h41.002V1.28zM40.86 8.13H3.142v34.996H40.86V8.13z" stroke="#CCDAEA" stroke-width="2" stroke-miterlimit="10" stroke-linecap="round" stroke-linejoin="round"/><path d="M5.769 43.126H3.142V8.13h2.627V40.5m32.463 2.626h2.627V8.13h-2.627V40.5" stroke="#CCDAEA" stroke-width="2" stroke-miterlimit="10" stroke-linecap="round" stroke-linejoin="round"/><path d="M40.86 40.499v2.627H3.142V40.5m35.091-.001H5.769" stroke="#CCDAEA" stroke-width="2" stroke-miterlimit="10" stroke-linecap="round" stroke-linejoin="round"/></svg><svg viewBox="0 0 13 25" id="fasebok" xmlns="http://www.w3.org/2000/svg"><path fill-rule="evenodd" clip-rule="evenodd" d="M3.48 18.345v-5.267c0-.293-.058-.41-.347-.351H1.52c-.231 0-.289-.059-.289-.293V9.157c0-.234.058-.293.289-.293h1.67c.346 0 .404-.117.404-.41V5.939c0-.995.288-1.99.865-2.81.75-1.053 1.845-1.52 3.056-1.58 1.27-.058 2.538 0 3.807-.058.173 0 .23.059.23.234V5.06c0 .176-.057.234-.23.234H9.477c-.807 0-1.326.41-1.384 1.23-.058.643 0 1.345 0 1.99 0 .233.115.233.288.233h2.769c.288 0 .346.059.346.351-.116 1.112-.231 2.224-.289 3.278 0 .234-.115.292-.346.292H8.67c-.52 0-.462-.058-.462.469v10.3c0 .35-.115.468-.461.468H3.941c-.346 0-.404-.117-.404-.41-.058-1.697-.058-3.453-.058-5.15z" stroke="#4C75A5" stroke-miterlimit="10" stroke-linecap="round" stroke-linejoin="round"/></svg><svg viewBox="0 0 23 24" id="instagram" xmlns="http://www.w3.org/2000/svg"><path d="M15.21 22.553H7.367c-3.576 0-6.46-2.926-6.46-6.555V8.04c0-3.628 2.884-6.555 6.46-6.555h7.843c3.576 0 6.46 2.927 6.46 6.555V16c0 3.628-2.884 6.554-6.46 6.554z" stroke="#4C75A5" stroke-miterlimit="10" stroke-linecap="round" stroke-linejoin="round"/><path d="M11.289 16.7c2.548 0 4.613-2.095 4.613-4.681s-2.065-4.682-4.613-4.682c-2.548 0-4.614 2.096-4.614 4.682 0 2.585 2.066 4.682 4.614 4.682zm5.767-10.066c.414 0 .75-.34.75-.76s-.336-.761-.75-.761-.75.34-.75.76.336.761.75.761z" stroke="#4C75A5" stroke-miterlimit="10" stroke-linecap="round" stroke-linejoin="round"/></svg><svg viewBox="0 0 151 40" id="logo-black" xmlns="http://www.w3.org/2000/svg"><path d="M31.357 40h-9.73l-2.463-12.733L16.703 40H6.974L.676 7.445h7.671l3.492 18.049 3.49-18.048H23l3.491 18.049 3.492-18.048h7.672L31.356 40zm43.96 0H66.85l-3.095-15.998L60.664 40h-7.67L59.29 7.444h7.67l3.491 18.049 3.492-18.049h7.67L75.318 40zm14.73 0h-7.671L90.115.004h7.663l-.406 2.105-.054.277-.557 2.903-.417 2.158L90.047 40zM46.01 40h-7.67l6.298-32.556h7.67L46.01 40zm98.442 0h-20.62l1.437-7.443h20.613L144.453 40h-.002zm-26.808 0H97.029l1.438-7.443h20.612L117.642 40h.001zm29.248-12.622h-20.617l1.437-7.444h20.612l-1.428 7.443-.004.001zm-26.8 0h-20.62l1.437-7.444h20.619l-1.436 7.44-.001.004zm29.215-12.485H128.69l1.437-7.444h20.617l-1.437 7.443v.001zm-26.802 0h-20.612l1.44-7.449h20.613l-1.437 7.443-.004.006z"/></svg><svg viewBox="0 0 43 13" id="logo-litle" xmlns="http://www.w3.org/2000/svg"><path d="M8.83 12.004H6.105l-.69-3.569-.69 3.569H1.998L.233 2.88h2.15l.978 5.058.979-5.058h2.149l.978 5.058.979-5.057h2.15L8.83 12.003zm12.32 0h-2.374L17.91 7.52l-.866 4.484h-2.15l1.765-9.123h2.15l.978 5.057.979-5.057h2.15l-1.766 9.123zm4.127 0h-2.15L25.297.796h2.146l-.113.59-.015.077-.157.814-.117.605-1.764 9.122zm-12.34 0h-2.15l1.765-9.123h2.15l-1.765 9.123zm27.585 0h-5.778l.403-2.086h5.776l-.4 2.086zm-7.512 0h-5.776l.402-2.086h5.776l-.402 2.086zm8.196-3.537h-5.777l.402-2.086h5.776l-.4 2.085h-.001zm-7.51 0h-5.778l.403-2.086h5.778l-.403 2.084v.002zm8.187-3.499h-5.778l.403-2.086h5.777l-.402 2.086zm-7.51 0h-5.777L29 2.881h5.776l-.403 2.085v.002z"/></svg><svg viewBox="0 0 104 32" id="logo-red" xmlns="http://www.w3.org/2000/svg"><path d="M11.039 6.666H.976v18.652H11.04a9.24 9.24 0 006.574-2.73 9.3 9.3 0 002.722-6.596c0-5.154-4.16-9.326-9.296-9.326zm2.415 12.037a3.82 3.82 0 01-2.703 1.135h-4.12v-7.5h4.312a3.646 3.646 0 013.642 3.654 3.766 3.766 0 01-1.13 2.711zM23.019 2.82v5.384h19.55V.128L23.02 2.82zM42.57 28.876v-5.384H23.018v8.076l19.55-2.692zm0-15.769H23.018v5.384h19.55v-5.384zm31.74-6.441c-5.137 0-9.297 4.172-9.297 9.326 0 5.153 4.16 9.326 9.297 9.326 5.136 0 9.296-4.173 9.296-9.326 0-5.154-4.179-9.326-9.296-9.326zm0 13.23a3.9 3.9 0 01-3.891-3.904 3.9 3.9 0 013.89-3.904 3.9 3.9 0 013.892 3.904 3.9 3.9 0 01-3.891 3.903zm-16.062-2.731l5.041 1.961c-1.342 3.75-5.022 6.403-9.296 6.153-4.753-.269-8.568-4.172-8.74-8.941-.211-5.288 4.025-9.672 9.277-9.672 4.044 0 7.494 2.596 8.76 6.21l-5.042 1.962a3.901 3.901 0 00-3.718-2.769c-2.224 0-4.006 1.865-3.891 4.134.115 2.02 1.801 3.654 3.814 3.692a3.874 3.874 0 003.795-2.73zM94.704 6.666c-5.137 0-9.296 4.172-9.296 9.326 0 5.153 4.159 9.326 9.296 9.326S104 21.145 104 15.992c0-5.154-4.16-9.326-9.296-9.326zm0 13.23a3.9 3.9 0 01-3.891-3.904 3.9 3.9 0 013.89-3.904 3.9 3.9 0 013.892 3.904 3.9 3.9 0 01-3.891 3.903z"/></svg><svg fill="none" viewBox="0 0 87 40" id="night" xmlns="http://www.w3.org/2000/svg"><rect x=".243" y=".777" width="86.305" height="38.622" rx="19.311" fill="#12253B"/><rect x=".243" y=".777" width="49.258" height="38.622" rx="19.311" fill="#FFE27D"/><path d="M72.847 26.33a.26.26 0 00-.188-.113h-.035a8.21 8.21 0 01-4.84-14.846.26.26 0 00-.147-.477l.001.001a8.734 8.734 0 105.138 15.797.26.26 0 00.071-.361z" fill="#FFE380"/><path d="M70.044 21.14a.261.261 0 00-.108-.055l-.002-.004-.705-.169-.378-.613a.26.26 0 00-.445 0l-.382.613-.694.17a.26.26 0 00-.148.425l.47.55-.056.723a.26.26 0 00.367.26l.672-.274.657.27a.26.26 0 00.367-.256l-.055-.723.47-.55a.26.26 0 00-.03-.367zm1.132-6.65a.261.261 0 00-.108-.055l.004.01-1.204-.294-.65-1.051a.26.26 0 00-.445 0l-.652 1.055-1.192.291a.26.26 0 00-.153.411l.802.945-.094 1.237a.26.26 0 00.368.26l1.146-.47 1.132.465a.26.26 0 00.367-.255l-.093-1.237.802-.945a.26.26 0 00-.03-.367zm2.328 4.218a.261.261 0 00-.108-.054l-.007-.004-.55-.132-.292-.474a.26.26 0 00-.446 0l-.288.483-.532.13a.26.26 0 00-.15.42l.366.428-.042.55a.26.26 0 00.367.26l.518-.212.502.206a.26.26 0 00.367-.256l-.042-.55.367-.427a.26.26 0 00-.03-.368z" fill="#FFE380"/><path d="M25.176 12.714a6.442 6.442 0 00-6.434 6.434 6.442 6.442 0 006.434 6.434 6.442 6.442 0 006.434-6.434 6.442 6.442 0 00-6.434-6.434zm6.679 10.295a7.758 7.758 0 01-2.832 2.83l3.874 1.043-1.042-3.873zM25.176 8.167l-1.982 3.53c.63-.18 1.3-.27 1.982-.27.682 0 1.35.09 1.981.27l-1.981-3.53zm-7.721 3.26l1.042 3.86a7.654 7.654 0 012.805-2.818l-3.847-1.042zm.27 5.726l-3.518 1.995 3.518 1.995a7.25 7.25 0 01-.27-1.995c0-.695.09-1.364.27-1.995zm.772 5.856l-1.042 3.873 3.873-1.042a7.759 7.759 0 01-2.831-2.831zm6.679 3.861c-.695 0-1.364-.09-2.008-.271l2.008 3.53 2.007-3.53a7.41 7.41 0 01-2.007.27zm3.867-14.394a7.767 7.767 0 012.81 2.814l1.048-3.861-3.858 1.047zm7.101 6.678l-3.515-1.99c.169.634.268 1.297.268 1.984 0 .692-.1 1.36-.272 1.998l3.52-1.992z" fill="#12253B"/></svg><svg fill="none" viewBox="0 0 50 44" id="oblique" xmlns="http://www.w3.org/2000/svg"><path d="M1.763 42.13V1.9l47.18 19.018V42.13H1.763z" stroke="#CCDAEA" stroke-width="2"/><path d="M22.28 38.352V14.184l23.215 9.358v14.81H22.28zM4.938 38.25h14.196V13.178L4.937 7.439v30.81z" stroke="#CCDAEA" stroke-width="2"/></svg><svg viewBox="0 0 25 25" id="pinterest" xmlns="http://www.w3.org/2000/svg"><path d="M12.507 1a11.51 11.51 0 00-4.194 22.228c-.1-.91-.191-2.31.04-3.305.21-.898 1.35-5.72 1.35-5.72a4.158 4.158 0 01-.344-1.708c0-1.601.927-2.793 2.082-2.793.98 0 1.456.738 1.456 1.621 0 .988-.628 2.464-.953 3.832-.27 1.145.574 2.08 1.704 2.08 2.045 0 3.618-2.157 3.618-5.27 0-2.756-1.98-4.68-4.807-4.68-3.275 0-5.197 2.457-5.197 4.995 0 .99.378 2.05.857 2.626a.343.343 0 01.08.33c-.088.364-.282 1.146-.32 1.306-.05.21-.167.255-.385.15-1.434-.669-2.336-2.77-2.336-4.458 0-3.63 2.642-6.964 7.604-6.964 3.992 0 7.094 2.845 7.094 6.646 0 3.967-2.5 7.159-5.972 7.159-1.166 0-2.264-.604-2.637-1.322 0 0-.578 2.198-.717 2.736-.26 1-.962 2.252-1.434 3.018A11.51 11.51 0 1012.507 1" stroke="#4C75A5" stroke-miterlimit="10"/></svg><svg viewBox="0 0 69 68" id="player" xmlns="http://www.w3.org/2000/svg"><path d="M40.79 25.118l-9-4.5a1.124 1.124 0 00-1.628 1.007v9a1.124 1.124 0 001.628 1.007l9-4.5a1.124 1.124 0 000-2.014zm-8.378 3.687v-5.36l5.36 2.68-5.36 2.68zM11.037 45.25h-2.25a1.125 1.125 0 100 2.25h2.25a1.125 1.125 0 100-2.25zm18 0h-13.5a1.125 1.125 0 100 2.25h13.5a1.125 1.125 0 100-2.25zm-18 4.5h-2.25a1.125 1.125 0 100 2.25h2.25a1.125 1.125 0 100-2.25zm18 0h-13.5a1.125 1.125 0 100 2.25h13.5a1.125 1.125 0 100-2.25zm-18 4.5h-2.25a1.125 1.125 0 100 2.25h2.25a1.125 1.125 0 100-2.25zm18 0h-13.5a1.125 1.125 0 100 2.25h13.5a1.125 1.125 0 100-2.25z"/><path d="M67.287.25H2.037A1.125 1.125 0 00.912 1.375v58.5A1.125 1.125 0 002.037 61h38.25a.265.265 0 00.09-.023l.472.71c.37.552.565 1.202.563 1.867v3.071a1.125 1.125 0 001.125 1.125h15.75a1.125 1.125 0 001.125-1.125v-2.014a3.316 3.316 0 01.563-1.867l.753-1.114a6.89 6.89 0 00.349-.63h6.21a1.125 1.125 0 001.125-1.125v-58.5A1.125 1.125 0 0067.287.25zm-7.875 58.331a3.4 3.4 0 01-.563 1.8l-.742 1.114a5.579 5.579 0 00-.945 3.116v.889h-13.5v-1.946a5.579 5.579 0 00-.945-3.117l-7.729-11.61a2.258 2.258 0 011.699-.573 2.206 2.206 0 011.654.934l3.285 4.59a1.1 1.1 0 001.26.416 1.125 1.125 0 00.776-1.069v-20.25a1.125 1.125 0 112.25 0v13.5a1.125 1.125 0 102.25 0v-2.25a1.125 1.125 0 112.25 0v2.25a1.125 1.125 0 102.25 0v-2.25a1.125 1.125 0 112.25 0v2.25a1.125 1.125 0 102.25 0v-2.25a1.125 1.125 0 112.25 0v14.456zm6.75-17.831h-2.25a1.125 1.125 0 100 2.25h2.25v15.75h-4.511c0-.045.011-.09.011-.135v-14.49a3.385 3.385 0 00-3.375-3.375 3.346 3.346 0 00-2.25.877 3.323 3.323 0 00-4.5 0 3.346 3.346 0 00-2.25-.877 3.373 3.373 0 00-1.125.203v-8.078a3.375 3.375 0 00-6.75 0v16.74l-1.237-1.744a4.512 4.512 0 00-6.886-.529l-.55.563a1.126 1.126 0 00-.124 1.406l6.277 9.439H3.162V43h34.875a1.125 1.125 0 100-2.25H3.162V11.5h63v29.25zm0-31.5h-63V2.5h63v6.75z"/><path d="M7.662 4.75H6.537a1.125 1.125 0 000 2.25h1.125a1.125 1.125 0 000-2.25zm5.625 0h-1.125a1.125 1.125 0 100 2.25h1.125a1.125 1.125 0 100-2.25zm5.625 0h-1.125a1.125 1.125 0 100 2.25h1.125a1.125 1.125 0 100-2.25zm45 32.625v-22.5a1.125 1.125 0 00-1.125-1.125H6.537a1.125 1.125 0 00-1.125 1.125v22.5A1.125 1.125 0 006.537 38.5h31.5a1.125 1.125 0 100-2.25H7.662V16h54v20.25H51.537a1.125 1.125 0 100 2.25h11.25a1.125 1.125 0 001.125-1.125z"/></svg><svg fill="none" viewBox="0 0 72 68" id="price" xmlns="http://www.w3.org/2000/svg"><path d="M21.672 10.226l9.718-.648c2.051-.108 4.103.648 5.722 2.052l31.422 30.773c1.62 1.62 1.512 4.32-.216 6.047L52.013 64.755c-1.727 1.727-4.427 1.835-6.046.216L15.3 34.305c-1.728-1.727-2.7-4.211-2.376-6.695l.756-9.825c.108-2.052 1.08-3.888 2.484-5.291" stroke="#fff" stroke-width="2" stroke-miterlimit="10" stroke-linecap="round" stroke-linejoin="round"/><path d="M23.4 16.489c1.62-.324 3.347.108 4.535 1.296 1.943 1.943 1.943 4.967 0 6.91-1.944 1.944-4.967 1.944-6.911 0-.432-.432-.756-.972-.972-1.404" stroke="#fff" stroke-width="2" stroke-miterlimit="10" stroke-linecap="round" stroke-linejoin="round"/><path d="M8.822 19.404S2.344 17.03 3.747 10.01C4.18 7.42 5.691 5.26 7.96 4.287c2.051-.972 4.967-1.08 8.422 1.944 0 0 1.727 1.512 2.267 4.427 2.592 13.173 5.723 10.906 5.723 10.906m22.35 16.519L39.704 45.1l-8.314-8.314 7.018-7.018c2.268-2.268 6.047-2.376 8.422 0 2.052 2.267 2.16 6.046-.108 8.314zm.432 14.47l-7.45-7.45m.864 5.614l9.718-9.718" stroke="#fff" stroke-width="2" stroke-miterlimit="10" stroke-linecap="round" stroke-linejoin="round"/></svg><svg fill="none" viewBox="0 0 43 70" id="proffy" xmlns="http://www.w3.org/2000/svg"><path d="M36.955 38.816c.473-.473 1.123-.36 1.719-.663 2.778-1.41 1.587-2.517 1.587-2.517-5.357 0-4.96-6.142-4.96-6.142V14.693c0-3.826-1.489-7.25-3.97-9.666A13.391 13.391 0 0021.709 1C14.168 1 8.215 7.444 8.215 15.096v13.996c0 4.53-3.77 4.933-4.366 6.645-.496 1.41 2.828 1.66 3.301 2.606" stroke="#59738C" stroke-width="1.6" stroke-miterlimit="10" stroke-linecap="round" stroke-linejoin="round"/><path d="M21.907 34.83c-2.282 0-3.473-1.61-3.473-1.61s-2.282-2.316-4.663-4.23c-2.38-1.912-2.083-6.443-2.083-6.443-3.77-1.31-4.068-7.048-1.985-8.055 2.084-1.007 2.779 2.517 2.779 2.517s7.143-1.309 8.631-5.739c0 0 .1-1.51 2.58-.806 2.48.705 7.937 2.316 7.739 6.545 0 0 .694-3.423 2.778-2.517 2.083.906 1.785 6.746-1.985 8.055 0 0 .298 4.53-2.083 6.444-2.381 1.913-4.663 4.229-4.663 4.229s-1.39 1.61-3.572 1.61zm-5.358 1.813v-5.034m2.679 12.485l-2.679-7.45s-2.48.603-3.67 1.811c-.298.303-.497.605-.695.907-.595 1.711-.992 3.826-.992 3.826s.65 1.006 3.527.906m12.347-7.451v-5.034m1.984 12.485c2.878.1 3.374-1.007 3.374-1.007s-.397-2.014-.992-3.826c-.1-.302-.298-.604-.695-.906-1.29-1.209-3.67-1.813-3.67-1.813l-2.68 7.451" stroke="#59738C" stroke-width="1.6" stroke-miterlimit="10" stroke-linecap="round" stroke-linejoin="round"/><path d="M4.312 62.821H1V47.316c0-3.625 2.183-6.746 5.258-8.156a8.455 8.455 0 013.572-.805h2.997" stroke="#59738C" stroke-width="1.6" stroke-miterlimit="10" stroke-linecap="round" stroke-linejoin="round"/><path d="M39.17 44.094H4.545V65.74h34.627V44.094zm-2.38 24.97H6.825c-1.786 0-3.274-1.51-3.274-3.322h36.71c-.1 1.812-1.588 3.322-3.473 3.322z" stroke="#59738C" stroke-width="1.6" stroke-miterlimit="10" stroke-linecap="round" stroke-linejoin="round"/><path d="M21.907 56.176a1.3 1.3 0 001.29-1.309 1.3 1.3 0 00-1.29-1.309 1.3 1.3 0 00-1.29 1.309 1.3 1.3 0 001.29 1.309zm17.413 6.645h2.726V47.316c0-4.934-3.968-8.961-8.83-8.961l-2.412-.011" stroke="#59738C" stroke-width="1.6" stroke-miterlimit="10" stroke-linecap="round" stroke-linejoin="round"/></svg><svg viewBox="0 0 512 512" id="scroll" xmlns="http://www.w3.org/2000/svg"><g fill="#2b8cfc"><path d="M256.001 512c-32.627 0-59.08-26.453-59.08-59.08V59.077C196.921 26.45 223.374 0 256.001 0s59.077 26.45 59.077 59.077V452.92c0 32.628-26.45 59.08-59.077 59.08z"/><path d="M452.924 315.075c-15.119 0-30.241-5.765-41.769-17.301L256.004 142.628 100.852 297.774c-23.068 23.073-60.477 23.073-83.546 0-23.073-23.073-23.073-60.477 0-83.551l196.92-196.918c23.068-23.073 60.477-23.073 83.543 0l196.925 196.92c23.071 23.073 23.071 60.477 0 83.551-11.537 11.533-26.656 17.299-41.77 17.299z"/></g></svg><svg viewBox="0 0 512 512" id="scroll-white" xmlns="http://www.w3.org/2000/svg"><g fill="#122e4a"><path d="M256.001 512c-32.627 0-59.08-26.453-59.08-59.08V59.077C196.921 26.45 223.374 0 256.001 0s59.077 26.45 59.077 59.077V452.92c0 32.628-26.45 59.08-59.077 59.08z"/><path d="M452.924 315.075c-15.119 0-30.241-5.765-41.769-17.301L256.004 142.628 100.852 297.774c-23.068 23.073-60.477 23.073-83.546 0-23.073-23.073-23.073-60.477 0-83.551l196.92-196.918c23.068-23.073 60.477-23.073 83.543 0l196.925 196.92c23.071 23.073 23.071 60.477 0 83.551-11.537 11.533-26.656 17.299-41.77 17.299z"/></g></svg><svg viewBox="0 0 113 126" id="shoulder-strap" xmlns="http://www.w3.org/2000/svg"><path clip-rule="evenodd" d="M37.668 36.1a5.738 5.738 0 00-6.885 4.296 5.738 5.738 0 004.3 6.882 5.738 5.738 0 006.886-4.295 5.738 5.738 0 00-4.3-6.882zm-8.833 3.846a7.738 7.738 0 019.284-5.794 7.738 7.738 0 015.798 9.281 7.738 7.738 0 01-9.284 5.794 7.738 7.738 0 01-5.798-9.281z"/><path clip-rule="evenodd" d="M29.387 1.486a1 1 0 011.157.814l6.817 39.219a1 1 0 11-1.97.342L28.574 2.642a1 1 0 01.813-1.156zm35.73 56.434a1 1 0 01.326 1.013l-2.53 9.883 6.758 7.649a1 1 0 01-.67 1.659l-10.172.811-4.962 8.827a1 1 0 01-1.795-.107l-3.916-9.438-9.958-2.303a1 1 0 01-.411-1.745l7.822-6.462-1.046-10.221a1 1 0 011.523-.951l8.731 5.427 9.244-4.188a1 1 0 011.056.145zm-2.128 2.536l-7.833 3.548a1 1 0 01-.94-.062L46.76 59.31l.893 8.727a1 1 0 01-.358.873l-6.674 5.513 8.486 1.962a1 1 0 01.699.591l3.325 8.015 4.216-7.5a1 1 0 01.792-.506l8.708-.695-5.783-6.546a1 1 0 01-.219-.91l2.144-8.377z"/><path clip-rule="evenodd" d="M29.403 20.874c-3.617-.836-7.5 1.413-8.382 5.23l-6.97 30.14c-.454 1.963-.194 3.798.769 5.341v.002l31.1 49.44.022.037c1.898 3.328 6.346 4.357 9.513 2.2a.535.535 0 01.034-.022l36.23-22.607c3.424-2.136 4.406-6.38 2.268-9.803L62.568 30.547c-.964-1.543-2.5-2.582-4.465-3.036l-28.7-6.637zm-10.331 4.779c1.14-4.934 6.129-7.803 10.781-6.728l28.7 6.637c2.414.558 4.431 1.877 5.711 3.926l31.419 50.285c2.723 4.36 1.457 9.838-2.905 12.56l-36.214 22.596c-4.124 2.794-9.869 1.466-12.349-2.855L13.127 62.649l-.001-.003c-1.28-2.048-1.58-4.44-1.023-6.852l6.97-30.141z"/></svg><svg fill="none" viewBox="0 0 20 19" id="tel" xmlns="http://www.w3.org/2000/svg"><path d="M3.08 2.37l.757-.757a2.093 2.093 0 012.96 0l.947.946a2.093 2.093 0 010 2.96l-.757.758M3.08 2.37S.516 4.556 7.692 11.732m-.705-5.455s-.207.447 2.753 3.407m3.39 2.736l.758-.757a2.093 2.093 0 012.96 0l.947.947a2.093 2.093 0 010 2.96l-.758.757m0 .001s-2.185 2.564-9.362-4.613m5.455.705s-.447.207-3.407-2.753" stroke="#fff" stroke-miterlimit="10"/></svg><svg fill="none" viewBox="0 0 20 19" id="tel-white" xmlns="http://www.w3.org/2000/svg"><path d="M3.09 2.38l.757-.758a2.093 2.093 0 012.96 0l.947.947a2.093 2.093 0 010 2.96l-.757.757M3.09 2.379S.524 4.565 7.701 11.743m-.705-5.456s-.206.447 2.754 3.408m3.391 2.736l.758-.757a2.093 2.093 0 012.96 0l.947.947a2.093 2.093 0 010 2.96l-.757.758m0 0s-2.186 2.565-9.364-4.613m5.456.706s-.447.206-3.408-2.754" stroke="#314961" stroke-miterlimit="10"/></svg><svg viewBox="0 0 21 19" id="telegram" xmlns="http://www.w3.org/2000/svg"><path d="M8.455 18.212v-5.676l7.612-6.848-9.977 5.736-4.844-2.458 18.859-7.55-3.115 16.796-6.286-3.687-2.249 3.687z" stroke="#4C75A5" stroke-miterlimit="10" stroke-linecap="round" stroke-linejoin="round"/></svg><svg viewBox="0 0 21 19" id="telegram-white" xmlns="http://www.w3.org/2000/svg"><path d="M8.63 17.892v-5.677l7.613-6.847-9.977 5.735L1.42 8.645l18.859-7.55-3.115 16.797-6.286-3.687-2.249 3.687z" stroke="#314961" stroke-miterlimit="10" stroke-linecap="round" stroke-linejoin="round"/></svg><svg viewBox="0 0 25 16" id="vk" xmlns="http://www.w3.org/2000/svg"><path d="M12.4 14.75h1.383s.404-.059.635-.293c.173-.234.173-.644.173-.644s0-1.931.865-2.165c.865-.293 1.96 1.814 3.114 2.633.865.644 1.557.469 1.557.469l3.114-.059s1.615-.117.865-1.405c-.057-.117-.461-.995-2.306-2.75-1.961-1.873-1.673-1.522.634-4.74 1.442-1.932 2.018-3.161 1.845-3.63-.173-.467-1.21-.35-1.21-.35H19.55s-.288-.059-.461.058c-.173.117-.288.41-.288.41s-.577 1.522-1.327 2.81c-1.557 2.691-2.191 2.867-2.422 2.691-.577-.41-.461-1.58-.461-2.4 0-2.633.403-3.686-.75-3.979-.404-.117-.634-.176-1.615-.176-1.269 0-2.307 0-2.941.293-.404.176-.692.644-.52.644.232 0 .75.175 1.039.527.346.468.346 1.638.346 1.638s.23 3.102-.461 3.453c-.462.293-1.154-.292-2.538-2.75A27.527 27.527 0 015.882 2.4s-.057-.176-.288-.293c-.23-.175-.519-.234-.519-.234H1.73s-.519 0-.692.234c-.173.176 0 .586 0 .586s2.595 6.203 5.594 9.363c2.71 2.927 5.767 2.693 5.767 2.693z" stroke="#4C75A5" stroke-miterlimit="10" stroke-linecap="round" stroke-linejoin="round"/></svg></svg>